<?xml version="1.0" encoding="UTF-8" standalone="no"?>
<!-- Created with Inkscape (http://www.inkscape.org/) -->

<svg
   xmlns:dc="http://purl.org/dc/elements/1.1/"
   xmlns:cc="http://creativecommons.org/ns#"
   xmlns:rdf="http://www.w3.org/1999/02/22-rdf-syntax-ns#"
   xmlns:svg="http://www.w3.org/2000/svg"
   xmlns="http://www.w3.org/2000/svg"
   xmlns:sodipodi="http://sodipodi.sourceforge.net/DTD/sodipodi-0.dtd"
   xmlns:inkscape="http://www.inkscape.org/namespaces/inkscape"
   width="189.52232mm"
   height="202.03642mm"
   viewBox="0 0 189.52232 202.03642"
   version="1.1"
   id="svg881"
   inkscape:version="0.92.2 5c3e80d, 2017-08-06"
   sodipodi:docname="darwin.svg">
  <defs
     id="defs875" />
  <sodipodi:namedview
     id="base"
     pagecolor="#ffffff"
     bordercolor="#666666"
     borderopacity="1.0"
     inkscape:pageopacity="0.0"
     inkscape:pageshadow="2"
     inkscape:zoom="0.59595001"
     inkscape:cx="326.8308"
     inkscape:cy="301.0863"
     inkscape:document-units="mm"
     inkscape:current-layer="layer1"
     showgrid="false"
     fit-margin-top="0"
     fit-margin-left="0"
     fit-margin-right="0"
     fit-margin-bottom="0" />
  <metadata
     id="metadata878">
    <rdf:RDF>
      <cc:Work
         rdf:about="">
        <dc:format>image/svg+xml</dc:format>
        <dc:type
           rdf:resource="http://purl.org/dc/dcmitype/StillImage" />
        <dc:title></dc:title>
      </cc:Work>
    </rdf:RDF>
  </metadata>
  <g
     inkscape:label="Calque 1"
     inkscape:groupmode="layer"
     id="layer1"
     transform="translate(-16.986891,-28.176315)">
    <path
       style="fill:#ffffff;fill-opacity:1;stroke-width:0.26458332"
       d="m 84.008415,28.176525 c -0.45737,0 -2.23229,1.9157 -3.43131,3.70417 -0.63414,0.94588 -1.36956,2.04484 -1.63711,2.43913 -0.26755,0.39429 -0.48783,0.78343 -0.48783,0.85989 0,0.0765 -0.37424,0.76345 -0.83509,1.52962 -1.29043,2.14538 -4.2051,4.79656 -6.54017,5.94486 -1.09674,0.53934 -1.24185,0.54742 -2.11666,0.1819 -0.66729,-0.27881 -1.35656,-0.34197 -2.372985,-0.21497 -1.413106,0.17655 -1.429923,0.16925 -1.273308,-0.45475 0.337254,-1.34373 -0.141957,-1.38542 -2.497005,-0.22325 -1.873496,0.92454 -4.239662,1.84829 -4.737695,1.84382 -0.07276,-5.3e-4 -0.310886,-0.12022 -0.529167,-0.26458 -0.337116,-0.22296 -0.300977,-0.3416 0.239779,-0.76068 0.737216,-0.57133 0.6033,-1.35599 -0.231511,-1.35599 -0.295608,0 -0.537435,0.0962 -0.537435,0.2067 0,0.33844 -1.11262,0.91947 -2.422591,1.26504 -1.541356,0.4066 -2.264695,0.0201 -2.389518,-1.2733 -0.06924,-0.71752 -0.179255,-0.84657 -0.677995,-0.77722 -0.327422,0.0455 -0.595312,-0.0256 -0.595312,-0.16536 0,-0.35375 1.545272,-3.42119 1.802474,-3.58015 0.115636,-0.0715 0.724945,-0.19208 1.355989,-0.26458 0.785355,-0.0902 1.364308,-0.29061 1.504818,-0.45475 0.0177,-0.0207 0.118308,-0.0574 0.23151,-0.091 0.102262,0.0374 0.223481,0.0737 0.289388,0.11575 0.193638,0.12352 0.666092,0.19526 0.859896,0.12403 0.193802,-0.0712 0.541729,-0.13229 0.777214,-0.13229 0.288957,0 0.346162,-0.0838 0.165364,-0.26459 -0.148518,-0.14852 -0.644345,-0.11254 -1.132747,-0.0909 -0.567994,0.0251 -0.858216,0.0503 -1.008724,0.0827 -0.271362,0.003 -0.590135,0.0129 -0.752409,0.008 -0.42912,-0.0122 -0.964075,-0.11746 -1.182357,-0.25632 -0.337886,-0.21493 -0.344096,-0.33857 -0.04134,-0.82682 0.999466,-1.61184 1.294569,-2.30252 1.107943,-2.60449 -0.393531,-0.63674 -1.88437,0.5523 -3.265951,2.60449 -0.591573,0.87872 -0.658529,0.90116 -2.711979,0.99219 -1.155567,0.0512 -2.606146,0.16829 -3.224609,0.25631 -1.312265,0.18678 -1.372431,0.0172 -0.463021,-1.32291 0.880782,-1.29792 0.878681,-2.16508 -0.0083,-1.54616 -0.497996,0.3475 -1.711246,2.08203 -1.719792,2.46393 -0.0094,0.42157 -1.087878,1.28666 -1.777668,1.42214 -1.156623,0.22716 -3.955052,0.97901 -4.431771,1.19062 -0.291041,0.12919 -0.856588,0.31002 -1.25677,0.39688 -0.761379,0.16524 -1.010455,0.66972 -0.33073,0.66972 0.216194,0 0.900803,-0.11588 1.521355,-0.26458 0.620551,-0.1487 1.804675,-0.43027 2.629296,-0.62839 0.958517,-0.23029 1.590384,-0.26996 1.752865,-0.10748 0.272309,0.27231 0.01146,1.84976 -0.396875,2.39778 -0.132461,0.17778 -0.232833,0.73918 -0.214974,1.24851 0.01786,0.50932 -0.06657,1.06487 -0.190169,1.23196 -0.510665,0.69037 0.255616,2.47209 1.30638,3.03444 0.524449,0.28068 0.729446,0.24574 1.39733,-0.24805 0.42849,-0.31679 0.840885,-0.57877 0.917773,-0.57877 0.07689,0 0.58528,-0.49108 1.132747,-1.09968 0.547466,-0.60859 1.379141,-1.48627 1.852084,-1.94303 0.472943,-0.45676 0.859896,-0.91183 0.859896,-1.01699 0,-0.10516 0.297656,-0.51716 0.661458,-0.90951 0.363802,-0.39234 0.661458,-0.85841 0.661458,-1.04179 0,-0.18339 0.119063,-0.339 0.264584,-0.339 0.395761,0 0.323204,0.43534 -0.264584,1.5875 -0.291041,0.57049 -0.529166,1.21363 -0.529166,1.42213 0,0.45662 0.713996,0.77816 0.93431,0.42168 0.229959,-0.37208 0.656941,-0.31167 0.520898,0.0744 -0.176758,0.50163 0.520049,1.26813 1.364258,1.49655 0.455811,0.12334 1.315302,0.0576 2.174544,-0.16536 1.332458,-0.34574 1.44031,-0.33282 1.777669,0.14883 0.197604,0.28212 0.671497,0.57255 1.050065,0.64492 0.925153,0.17685 2.769585,-0.31612 3.406511,-0.90951 0.284004,-0.26459 0.669054,-0.48782 0.859896,-0.48782 0.190841,0 0.347265,-0.10296 0.347265,-0.23151 0,-0.12856 0.267891,-0.2941 0.595313,-0.37207 0.327422,-0.078 0.863089,-0.22311 1.182357,-0.32246 0.486269,-0.15132 0.638376,-0.0267 0.967382,0.76067 0.410126,0.98158 0.617773,1.00442 2.306836,0.3142 0.239684,-0.0979 0.567294,0.007 0.760674,0.23977 0.52852,0.63683 2.20302,0.50503 3.63802,-0.28938 1.67383,-0.92663 3.3308,-2.06834 3.76205,-2.58796 1.05472,-1.27087 1.06163,0.20389 0.0165,3.06751 -0.43656,1.19621 -0.79375,2.39092 -0.79375,2.65411 0,0.94095 0.7169,0.44721 1.33945,-0.91778 0.34844,-0.76398 0.90896,-1.75732 1.24024,-2.20762 0.33128,-0.45029 0.59531,-1.07537 0.59531,-1.38906 0,-0.31369 0.11084,-0.57051 0.23978,-0.57051 0.12894,0 0.41994,-0.40144 0.65319,-0.89296 0.45697,-0.96301 1.29155,-1.62613 2.38952,-1.9017 0.82807,-0.20783 0.8743,0.10522 0.15709,1.017 -0.9934,1.26291 -0.62379,1.52808 1.81074,1.32291 1.82222,-0.15356 2.05534,0.11079 1.14102,1.28158 -0.84028,1.07598 -0.9156,1.69442 -0.23978,2.00091 1.36857,0.62066 2.31878,0.83724 2.48874,0.56224 0.10311,-0.16683 0.74087,-0.21567 1.62884,-0.12402 1.43674,0.14828 2.96003,-0.29562 2.96003,-0.8599 0,-0.12731 -1.06117,-0.2716 -2.36472,-0.32246 -1.97286,-0.077 -2.43351,-0.17727 -2.74505,-0.60358 -0.32788,-0.44868 -0.31738,-0.61264 0.11576,-1.32292 0.9663,-1.5846 0.32752,-2.58986 -1.26504,-1.98437 -0.92126,0.35026 -1.9441,0.29895 -1.94304,-0.0909 5.3e-4,-0.18191 0.24649,-0.72464 0.54571,-1.21543 1.11898,-1.83545 -0.103,-2.14339 -2.7864,-0.69454 -0.94953,0.51269 -1.72806,0.87372 -1.72806,0.80202 0,-0.0717 0.26396,-0.58261 0.57878,-1.13274 0.31481,-0.55013 0.74678,-1.34654 0.96738,-1.77767 0.22061,-0.43113 0.79835,-1.17869 1.28158,-1.66192 0.48322,-0.48322 0.87643,-0.99745 0.87643,-1.14101 0,-0.36577 1.29939,-2.40685 1.89342,-2.97657 0.51805,-0.49679 0.67716,-1.77766 0.22329,-1.77766 z m -57.108654,1.70326 c -0.573852,0.0306 -1.517602,0.27876 -2.819466,0.73587 -4.016288,1.41018 -4.353973,1.72034 -3.307292,3.05098 0.291042,0.36999 0.529167,0.81907 0.529167,1.00045 0,0.30257 1.620967,1.71153 1.967838,1.71153 0.08247,0 0.148828,-0.29766 0.148828,-0.66146 0,-0.36381 -0.08601,-0.66146 -0.198437,-0.66146 -0.112427,0 -0.43348,-0.41886 -0.711068,-0.93431 -0.497176,-0.9232 -0.494797,-0.93947 0.0083,-1.42214 0.572405,-0.54919 2.902056,-1.28032 3.613216,-1.13274 0.254662,0.0528 0.463021,0.25062 0.463021,0.44648 0,0.46107 -0.752419,3.54648 -1.033528,4.23333 -0.770626,1.88293 -1.633342,3.71312 -2.670638,5.68028 -1.52545,2.8929 -1.866638,2.97837 -3.431316,0.81855 -1.145995,-1.58188 -1.78952,-1.92991 -2.348177,-1.25677 -0.212756,0.25636 -0.155911,0.58479 0.214974,1.25677 0.276156,0.50034 0.702768,1.26669 0.942578,1.70326 0.239808,0.43656 0.81193,0.9958 1.273308,1.24023 1.145945,0.60711 1.299916,0.58637 2.067057,-0.24805 1.169974,-1.27258 2.256287,-3.10955 3.257682,-5.52317 0.534998,-1.28949 1.088009,-2.55024 1.223698,-2.80293 0.135689,-0.25269 0.239779,-0.63964 0.239779,-0.8599 0,-0.22025 0.09959,-0.40514 0.214974,-0.40514 0.678997,0 1.523592,-4.9362 0.992187,-5.79603 -0.08345,-0.13502 -0.292341,-0.19197 -0.636653,-0.17363 z m 39.298892,1.08314 c -0.121576,-0.0115 -0.299069,0.05 -0.570508,0.17363 -0.683339,0.31135 -0.802233,0.52068 -0.487826,0.83509 0.272833,0.27283 1.090478,0.20998 1.281576,-0.0992 0.09423,-0.15249 0.105553,-0.45103 0.02479,-0.66146 -0.05944,-0.15491 -0.126469,-0.23657 -0.248045,-0.24804 z m -16.428972,5.96966 c 0.176335,-0.005 0.297315,-0.006 0.338998,0.008 0.458954,0.15298 -2.656838,4.60339 -4.655013,6.64765 -1.925254,1.96966 -2.98483,2.36221 -2.98483,1.10795 0,-0.37337 -0.125502,-0.91639 -0.28112,-1.20717 -0.18248,-0.34096 -0.18879,-0.64097 -0.02479,-0.84336 0.139845,-0.1726 0.394285,-1.02856 0.570508,-1.90169 0.176223,-0.87312 0.595362,-1.95583 0.934309,-2.40605 0.581107,-0.77188 0.780248,-0.8366 3.381705,-1.15755 1.138037,-0.14041 2.191242,-0.23244 2.720248,-0.24805 z"
       id="path3790"
       inkscape:connector-curvature="0" />
    <path
       style="display:inline;fill:#999999;stroke-width:0.25317359"
       d="m 171.10024,229.99215 c -1.2e-4,-0.12081 -0.23085,-0.15908 -0.51253,-0.0855 -0.82094,0.2147 -2.20028,-0.27809 -2.3468,-0.83823 -0.0724,-0.27629 -0.0359,-0.55977 0.0772,-0.63088 0.23443,-0.14472 3.4798,-0.17164 4.74844,-0.0359 0.69326,0.0724 0.80414,0.012 0.6856,-0.35943 -0.0933,-0.29424 0.0179,-0.49697 0.33491,-0.59685 0.44913,-0.14233 0.98068,-1.94832 1.42114,-4.82654 0.064,-0.41804 0.24819,-1.32917 0.40906,-2.02535 0.45093,-1.95 0.49758,-2.18061 0.73937,-3.67106 0.1244,-0.7658 0.41325,-2.18993 0.64225,-3.16463 0.22905,-0.97476 0.35942,-2.14023 0.29005,-2.59003 -0.14054,-0.91328 -2.24579,-3.25511 -2.68308,-2.98485 -0.14354,0.0885 -0.26135,0.0419 -0.26135,-0.10646 -0.23324,-1.42831 -0.0801,-1.58135 -2.06249,-5.27711 -0.3971,-0.45751 -0.72244,-1.00215 -0.72244,-1.21051 0,-0.20872 -0.17104,-0.44435 -0.37976,-0.52449 -0.20872,-0.0801 -0.37976,-0.30919 -0.37976,-0.50834 0,-0.19975 -0.20812,-0.67161 -0.46229,-1.04892 -0.25417,-0.37736 -0.80844,-1.19866 -1.2318,-1.82524 -0.42342,-0.62663 -0.84875,-1.39267 -0.94534,-1.70234 -0.0963,-0.30979 -0.45391,-0.78177 -0.79355,-1.0491 -0.33969,-0.26732 -0.62549,-0.69756 -0.63476,-0.95604 -0.012,-0.25835 -0.51492,-1.32437 -1.12421,-2.36868 -0.60912,-1.04438 -1.41732,-2.52544 -1.79606,-3.2913 -0.9082,-1.83643 -1.83649,-3.18126 -3.53165,-5.11636 -1.06848,-1.21966 -1.36266,-1.72615 -1.25602,-2.16236 0.0981,-0.40189 0.0239,-0.56994 -0.2452,-0.56994 -0.21171,0 -0.38455,-0.10107 -0.38455,-0.22487 0,-0.18838 -1.23359,-1.03516 -5.67308,-3.89431 -0.26553,-0.17104 -0.83531,-0.60893 -1.2659,-0.97302 -0.4306,-0.36421 -1.43795,-1.03008 -2.23861,-1.47993 -0.80067,-0.44973 -1.45571,-0.9238 -1.45571,-1.05322 0,-0.12918 -0.25657,-0.34807 -0.56934,-0.48622 -0.31338,-0.13755 -0.91143,-0.47365 -1.32917,-0.74648 -0.41803,-0.27271 -1.27222,-0.77244 -1.8988,-1.11045 -0.62663,-0.3379 -1.41552,-0.91071 -1.75306,-1.27265 -0.35225,-0.37797 -0.89145,-0.65863 -1.26588,-0.65953 -0.35883,-7.7e-4 -0.96178,-0.16326 -1.34035,-0.36062 -0.7972,-0.41564 -1.68063,-0.54064 -2.22324,-0.31398 -0.20872,0.0873 -0.60523,0.12201 -0.88081,0.0778 -0.2757,-0.0419 -0.90215,0.006 -1.39243,0.11363 -0.8213,0.17941 -2.33502,0.37856 -4.56245,0.6014 -0.48741,0.0478 -1.74056,0.22127 -2.78493,0.38394 -1.6161,0.25118 -6.01702,0.5538 -8.418,0.57832 -0.38275,0.003 -0.69625,0.0777 -0.69625,0.16386 0,0.0861 -0.9805,0.17523 -2.17893,0.19795 -1.19843,0.0239 -2.70796,0.16327 -3.35457,0.31219 -0.64655,0.14891 -2.46952,0.43537 -4.05099,0.63674 l -6.25289,0.93469 c -0.54961,0.13994 -1.4544,0.36301 -2.01142,0.49578 -1.15022,0.2739 -1.35147,0.3355 -1.94228,0.59266 -0.23264,0.10167 -0.57472,0.22068 -0.75952,0.26554 -1.07619,0.25955 -1.45302,0.47186 -1.29753,0.73153 0.10586,0.17642 0.018,0.16506 -0.21828,-0.0299 -0.47007,-0.38036 -1.98486,0.0419 -1.98486,0.55678 0,0.38933 -1.17923,2.64923 -1.66862,3.19758 -0.19616,0.22008 -0.35703,0.48442 -0.35703,0.58729 0,0.10346 -0.34149,0.6844 -0.75952,1.29154 -0.41804,0.60714 -0.75952,1.26272 -0.75952,1.45678 0,0.19437 -0.43777,1.19891 -0.97255,2.23294 -0.53465,1.03408 -1.1156,2.31426 -1.29059,2.84485 -0.17522,0.53047 -0.81962,1.97416 -1.43262,3.20787 -0.613001,1.23365 -1.114581,2.36606 -1.114581,2.51635 0,0.15011 -0.11184,0.2733 -0.24879,0.2733 -0.13695,0 -0.52688,0.54841 -0.86633,1.21847 -0.33969,0.67017 -0.79319,1.36432 -1.00795,1.54254 -0.2147,0.17822 -0.75318,1.111 -1.19652,2.07278 -0.44315,0.96178 -0.88971,1.74875 -0.99198,1.74875 -0.23384,0 -2.27079,3.10692 -2.27079,3.46395 0,0.14533 -0.34447,0.69732 -0.76526,1.22696 -0.42102,0.52987 -0.83332,1.25727 -0.91651,1.61712 -0.0831,0.36002 -0.29005,0.76813 -0.4593,0.90742 -0.41445,0.34088 -0.474831,1.08152 -0.81298,1.5609 -1.019334,1.44507 -1.853264,4.08695 -3.61036,3.88725 -0.371331,-0.0422 -0.55917,-0.97177 -0.55917,-0.97177 -0.58848,-1.02254 -0.51672,-1.81854 0.16326,-1.81854 0.76221,0 1.94755,-1.15017 2.86836,-2.78331 1.23168,-2.18455 1.18766,-2.11398 3.10339,-4.97552 0.91854,-1.37211 2.04425,-3.12128 2.50163,-3.88714 0.45751,-0.76586 0.91263,-1.44943 1.01166,-1.51904 0.41624,-0.29244 2.02774,-2.80598 2.17498,-3.39272 0.0879,-0.35046 0.31936,-0.76981 0.51492,-0.93182 0.19497,-0.16207 0.35464,-0.4306 0.35464,-0.59685 0,-0.16626 0.49937,-1.26296 1.1092,-2.43747 0.610071,-1.1745 1.195801,-2.42024 1.301601,-2.76836 0.10585,-0.34807 0.92165,-2.16936 1.81298,-4.04717 0.89139,-1.87787 1.50194,-3.45391 1.35679,-3.50229 -0.49339,-0.16446 -0.26613,-1.24023 0.40368,-1.91004 0.3672,-0.36721 0.74302,-0.66743 0.8353,-0.66743 0.0921,0 0.12319,-0.38095 0.0688,-0.84659 -0.0873,-0.74679 -0.17284,-0.83243 -0.72699,-0.72651 -0.67095,0.12858 -1.92069,-0.3983 -1.7192,-0.7243 0.16685,-0.27032 -1.093,-1.11859 -2.16362,-1.45624 -1.373961,-0.43359 -5.644501,-1.3196 -5.767221,-1.19682 -0.0604,0.0604 -0.23982,0.003 -0.3989,-0.12619 -1.97989,-1.61514 -2.5481,-2.01201 -2.88073,-2.01201 -0.889,0 -2.50481,-1.11332 -3.25255,-2.241 -0.50355,-0.75988 -0.99718,-1.20788 -1.39249,-1.2644 -1.01507,-0.14532 -1.2437,-0.47365 -0.93852,-1.34913 0.25178,-0.72304 0.33371,-0.76401 1.27241,-0.63806 0.552,0.0742 1.2074,0.35404 1.45714,0.62185 0.24999,0.26793 0.73297,0.70671 1.07392,0.97494 0.34088,0.26792 0.74786,0.72675 0.90425,1.01901 0.20871,0.38993 0.45511,0.49877 0.92631,0.40847 0.44973,-0.0861 0.64195,-0.012 0.64195,0.24639 0,0.20274 0.56635,0.67717 1.25805,1.05376 0.69194,0.37677 1.32641,0.79535 1.40996,0.93051 0.0837,0.13516 0.2452,0.18838 0.35883,0.11781 0.11363,-0.0706 0.34746,0.0419 0.5197,0.24879 0.183,0.22008 0.74768,0.37916 1.35787,0.38275 0.57472,0.003 1.72854,0.28766 2.56401,0.63172 0.835471,0.34388 1.775361,0.62628 2.088681,0.62693 0.31338,7.8e-4 0.56994,0.0969 0.56994,0.21351 0,0.11721 0.25656,0.33849 0.56934,0.49279 0.31338,0.15429 0.95395,0.53405 1.42366,0.8448 0.84803,0.56037 0.85287,0.56097 0.68596,0.0359 -0.0927,-0.29125 -0.076,-0.58668 0.0359,-0.65612 0.17104,-0.10585 0.23563,-4.09351 0.0664,-4.09351 -0.0299,0 -0.0825,-0.7801 -0.11482,-1.73351 -0.0299,-0.95346 -0.16327,-1.80789 -0.29125,-1.8988 -0.12739,-0.0909 -0.23145,-1.92218 -0.23145,-4.06941 4.8e-4,-2.87859 -0.0819,-3.93151 -0.31277,-4.0086 -0.43538,-0.14533 -0.39352,-0.56874 0.0538,-0.56874 0.244,0 0.35644,-0.23683 0.33012,-0.69619 -0.0239,-0.38275 0.0538,-2.40517 0.16506,-4.49385 0.11244,-2.08869 0.22128,-4.82296 0.24161,-6.07617 0.0239,-1.25321 0.11124,-2.39297 0.20155,-2.53279 0.0903,-0.13995 0.22785,-1.02739 0.3056,-1.9723 0.0778,-0.94498 0.2129,-1.83392 0.30082,-1.97548 0.21828,-0.35344 -0.10466,-1.54721 -0.37378,-1.38095 -0.69643,0.4306 -1.25674,-2.14101 -0.66378,-3.04598 0.36721,-0.56037 0.36661,-0.61204 -0.006,-0.61204 -0.22546,0 -0.71221,-0.16925 -1.08181,-0.37617 -1.96763,-1.10184 -4.490141,-1.19861 -5.253731,-0.20154 -0.30201,0.39411 -0.37796,0.40308 -0.60355,0.0718 -0.22307,-0.32773 -0.29005,-0.33012 -0.49159,-0.0179 -0.17284,0.26852 -0.32175,0.29125 -0.56934,0.0879 -0.1848,-0.1519 -0.96232,-0.34627 -1.72818,-0.43238 -3.46186,-0.38874 -3.17875,-0.42761 -4.22174,0.57233 -1.11829,1.0717 -2.10764,2.32407 -2.10764,2.66795 0,0.13097 -0.28467,0.61102 -0.63292,1.06745 -0.34806,0.45632 -0.63291,0.90198 -0.63291,0.99019 0,0.0879 -0.29843,0.5514 -0.663,1.0296 -0.6978,0.9149 -1.72513,1.16476 -2.32449,0.56516 -0.50116,-0.50117 -0.35105,-1.08444 0.58011,-2.2556 0.48621,-0.61138 0.88475,-1.30285 0.88612,-1.53656 0.001,-0.23384 0.15251,-0.57533 0.33671,-0.75953 0.78559,-0.78697 0.69397,-1.51814 -0.31697,-2.52896 -0.53346,-0.53346 -1.21159,-0.97027 -1.50642,-0.97027 -0.29484,0 -0.53585,-0.11363 -0.53585,-0.25298 0,-0.13934 -0.2781,-0.25297 -0.61797,-0.25297 -0.33969,0 -0.6902,-0.11662 -0.77848,-0.25956 -0.0927,-0.14951 -1.0836,-0.244 -2.34333,-0.22247 -2.14663,0.0359 -2.19471,0.0239 -2.89258,-0.75713 -0.39052,-0.43717 -0.7097,-1.011 -0.7097,-1.27587 0,-0.26494 -0.067,-0.65654 -0.14891,-0.87028 -0.1555,-0.40488 1.02087,-1.06154 3.00692,-1.6789 0.80222,-0.24939 1.05986,-0.23204 1.5755,0.10585 0.73117,0.47904 3.66825,1.2068 3.66825,0.90886 0,-0.4599 0.95328,0.0831 1.36283,0.77632 0.24101,0.40787 0.59326,0.74146 0.78278,0.74146 0.18958,0 0.5221,0.0682 0.73931,0.15131 0.26374,0.10107 0.49399,-0.0664 0.69427,-0.50655 0.16506,-0.36182 0.43897,-0.65773 0.60918,-0.65773 0.30022,0 1.63464,-2.5142 1.63464,-3.08043 0,-0.15489 -0.18839,-0.41923 -0.41863,-0.58788 -0.23025,-0.16805 -0.3373,-0.43717 -0.23803,-0.59745 0.24161,-0.39052 0.9073,-0.37258 0.92004,0.0239 0.0179,0.60864 0.73081,-1.01602 0.82698,-1.88881 0.0538,-0.48442 0.17822,-1.01238 0.27809,-1.17325 0.0993,-0.16088 0.0479,-0.29245 -0.11662,-0.29245 -0.1818,0 -0.24101,-0.21649 -0.1519,-0.55678 0.0801,-0.3062 0.0538,-0.67633 -0.0604,-0.82279 -0.70624,-0.9131 -0.40787,-1.93158 0.88152,-3.00717 0.77322,-0.64511 1.87745,-0.70258 1.87745,-0.0981 0,0.14712 0.19138,0.47844 0.42461,0.73632 0.64889,0.71706 0.52808,3.23681 -0.25417,5.30785 -0.35045,0.92758 -0.57532,1.7484 -0.49937,1.82405 0.076,0.076 -0.16087,0.64721 -0.52628,1.27007 -0.36481,0.62287 -0.66365,1.41881 -0.66365,1.76873 0,0.34986 -0.11363,0.70659 -0.25298,0.79265 -0.13934,0.0861 -0.25297,0.39711 -0.25297,0.69123 0,0.29424 -0.19496,0.75007 -0.43299,1.01321 -0.68488,0.75683 -0.0538,0.94486 3.21792,0.9567 4.24871,0.0179 9.688671,0.16506 10.126921,0.27869 0.27331,0.0706 0.36182,-0.079 0.31577,-0.53466 -0.0359,-0.34806 -0.11064,-1.43471 -0.16805,-2.41468 -0.15609,-2.66753 -0.68022,-5.94005 -0.95131,-5.94005 -0.13157,0 -0.16865,-0.11422 -0.0825,-0.25297 -0.14652,-1.1592 -0.22906,-5.45097 -0.91041,-8.46866 -0.12619,-0.13217 -0.22905,-0.39949 -0.22905,-0.59386 0,-0.19437 -0.23504,-0.68339 -0.5221,-1.08671 -0.46349,-0.65092 -0.64147,-0.72101 -1.58231,-0.62329 -0.5831,0.0604 -1.479221,0.11662 -1.991441,0.1244 -0.51253,0.006 -1.08187,0.16326 -1.26589,0.34507 -0.39471,0.38993 -1.25632,0.78308 -1.56378,0.71341 -0.11901,-0.0299 -0.37557,0.0825 -0.56934,0.244 -0.19437,0.16088 -0.35285,0.23384 -0.35285,0.16088 0,-0.15908 -3.88247,1.06997 -5.82301,1.84384 -0.76586,0.3056 -1.67729,0.61617 -2.02541,0.69057 -0.34806,0.0742 -0.74684,0.21888 -0.88607,0.32175 -0.13934,0.10226 -0.6804,0.26314 -1.20261,0.35703 -0.5221,0.0939 -0.9494,0.27989 -0.9494,0.41265 0,0.13277 -0.11961,0.24161 -0.26554,0.24161 -0.14592,0 -0.73811,0.22846 -1.31582,0.50775 -0.57772,0.27929 -1.26481,0.43956 -1.52682,0.35643 -0.68632,-0.21769 -3.40169,0.85605 -3.54439,1.40171 -0.12918,0.49399 -1.63207,1.35207 -1.9857,1.13354 -0.29484,-0.18181 -1.75001,0.68692 -1.58847,0.94838 0.0694,0.11244 -0.0239,0.14952 -0.20334,0.0837 -0.4581,-0.16686 -2.73475,1.30799 -2.73475,1.7719 0,0.20872 -0.0855,0.36062 -0.19018,0.33789 -0.39591,-0.0867 -1.75282,0.36003 -2.88247,0.94881 -0.64542,0.3367 -1.35751,0.61174 -1.58232,0.61174 -0.22486,0 -0.40906,0.15848 -0.40906,0.35165 0,0.20214 -0.38156,0.42342 -0.89941,0.5203 -0.49458,0.0927 -0.95855,0.32295 -1.03085,0.51133 -0.0724,0.18839 -0.45691,0.47725 -0.85461,0.64219 -0.3977,0.16446 -0.78476,0.4599 -0.86,0.65612 -0.0754,0.19616 -0.29424,0.35643 -0.48621,0.35643 -0.40787,0 -2.91752,2.4941 -3.3642,3.34333 -0.27809,0.52927 -1.334601,1.45565 -2.394043,2.09987 -1.249263,0.7597 -2.039164,1.66131 -1.883971,2.1504 0.08851,0.27929 0.310985,0.50774 0.494586,0.50774 0.183002,0 0.392319,0.22666 0.464683,0.50356 0.07236,0.27689 0.436575,0.61933 0.809637,0.76107 0.751268,0.28587 0.741759,0.85389 -0.01794,0.94815 -0.684107,0.0849 -1.310562,-0.52449 -2.886299,-2.80939 -0.754617,-1.09413 -1.662573,-2.16846 -2.017754,-2.38741 -0.707191,-0.43598 -1.278746,-1.04748 -1.278746,-1.36809 0,-0.46887 0.822077,-0.14712 1.738884,0.68135 1.013811,0.91591 1.517427,1.05807 2.287833,0.64577 0.479036,-0.25656 1.79516,-1.3291 2.661731,-2.16965 0.290054,-0.28109 0.954186,-0.82812 1.476401,-1.21548 0.522098,-0.38753 0.949398,-0.82237 0.949398,-0.96674 0,-0.35285 2.3218,-2.47395 2.7216,-2.48662 0.17403,-0.006 0.31637,-0.0963 0.31637,-0.20155 0,-0.10525 0.37019,-0.34926 0.82279,-0.54243 0.45272,-0.19317 1.17899,-0.61455 1.61425,-0.9369 0.43538,-0.32235 1.27534,-0.73338 1.86669,-0.91352 4.41796,-2.35248 6.55293,-5.30121 2.5176,-5.64473 -0.89719,-0.0682 -1.94826,-0.25357 -2.33562,-0.41206 -0.38753,-0.15848 -0.76938,-0.22307 -0.84886,-0.14353 -0.0795,0.0795 -0.41326,0.0419 -0.74242,-0.0831 -0.3684,-0.13994 -0.65582,-0.13396 -0.74846,0.0179 -0.0825,0.13397 -0.28587,0.24162 -0.45212,0.23982 -0.1842,-0.002 -0.15609,-0.0957 0.0712,-0.23982 0.32833,-0.20752 0.32833,-0.24938 0,-0.35225 -0.99652,-0.31158 -4.9544,-0.60378 -5.2194,-0.38514 -0.18659,0.1543 -0.411454,0.1226 -0.632912,-0.0891 -0.703364,-0.67232 -1.679856,-0.9122 -3.164809,-0.77758 -1.666939,0.15131 -2.221629,-0.18061 -2.071519,-1.23963 0.07057,-0.49818 0.251779,-0.59446 1.232876,-0.65863 0.632615,-0.0419 1.771896,0.0359 2.531716,0.17044 5.272148,0.93577 5.944298,1.02386 6.023118,0.78912 0.11782,-0.35165 0.73847,-0.31457 0.86047,0.0538 0.0634,0.19018 0.54303,0.27989 1.287,0.24161 0.76772,-0.0419 1.18599,0.0419 1.18599,0.23324 0,0.16805 0.2135,0.23862 0.49638,0.16446 0.27331,-0.0718 0.98522,0.0419 1.58238,0.25058 0.59745,0.20932 1.5984,0.41744 2.22497,0.46289 0.62664,0.0478 1.49608,0.15789 1.93212,0.25059 1.0086,0.2141 1.22934,-0.13158 0.83882,-1.31517 -0.26314,-0.79792 -0.47904,-1.97942 -0.85174,-4.6695 -0.0478,-0.36361 -0.20513,-0.87638 -0.34328,-1.13928 -0.22427,-0.42581 -0.59147,-2.10848 -0.68501,-3.1364 -0.0783,-0.86406 -0.98887,-2.53172 -1.38196,-2.53172 -0.23264,0 -0.4306,-0.22188 -0.45213,-0.506547 -0.0239,-0.27869 0.0706,-0.50654 0.20394,-0.50654 0.37378,0 -0.012,-1.29011 -0.68268,-2.29214 -0.33191,-0.49459 -0.60373,-1.04431 -0.60373,-1.2211 0,-0.48023 -0.79061,-0.23204 -1.11218,0.34867 -0.1543,0.27869 -0.31518,0.55977 -0.35764,0.62561 -0.0419,0.0658 -0.16925,-0.0299 -0.28108,-0.21111 -0.15968,-0.25835 -0.57114,-0.15908 -1.88505,0.45512 -0.9244,0.43239 -1.68075,0.90251 -1.68075,1.04515 0,0.14293 -0.14234,0.23024 -0.31637,0.19496 -0.17403,-0.0359 -0.59207,0.0879 -0.92936,0.27391 -0.53885,0.29723 -0.65445,0.28168 -0.95604,-0.13098 -0.30979,-0.42401 -0.26315,-0.49697 0.48621,-0.75671 0.45631,-0.15788 1.39291,-0.64487 2.08156,-1.08181 0.68866,-0.43717 1.37539,-0.79444 1.52598,-0.79444 0.15071,0 0.55559,-0.19855 0.89989,-0.44196 0.34447,-0.24281 1.13862,-0.61324 1.76525,-0.82279 0.62658,-0.20932 1.14102,-0.49519 1.14311,-0.63423 0.006,-0.50595 0.40129,-0.86048 0.78931,-0.71156 0.21828,0.0837 0.47126,0.0478 0.56156,-0.0742 0.0903,-0.12499 0.50595,-0.4581 0.92387,-0.74098 0.59685,-0.40368 0.88158,-0.4587 1.32916,-0.25656 0.8204,0.37138 0.70193,0.70444 -0.44614,1.25434 -0.55559,0.26613 -1.00981,0.56695 -1.00981,0.6688 0,0.10167 -0.31338,0.26673 -0.69625,0.3666 -0.65958,0.17164 -0.66807,0.19198 -0.16147,0.38634 0.71927,0.2757 1.66927,1.51868 1.49919,1.96184 -0.14772,0.38454 0.4276,1.79217 1.18066,2.88827 0.32056,0.467077 0.49878,1.284247 0.56994,2.618727 0.064,1.19102 0.24461,2.10178 0.46828,2.35924 0.44135,0.50774 0.73428,1.65049 0.70587,2.75551 -0.012,0.44973 0.26912,1.42975 0.62365,2.17851 0.35464,0.74875 0.61054,1.51653 0.56874,1.70617 -0.11363,0.5197 1.56108,1.28281 2.4127,1.09963 0.39352,-0.0849 0.96454,-0.18121 1.26828,-0.2147 0.30381,-0.0359 0.77896,-0.18181 1.05616,-0.33012 0.27749,-0.14832 0.95968,-0.25896 1.51665,-0.2458 3.18753,0.0754 8.20432,-1.09425 9.14307,-2.13156 0.23623,-0.26075 0.72508,-0.47545 1.08642,-0.47605 0.857,-0.002 2.4264,-0.43179 3.69504,-1.01303 0.55678,-0.25477 1.21015,-0.52569 1.45152,-0.60116 0.69684,-0.21829 0.2458,-0.91615 -0.59267,-0.91615 -0.84576,0 -0.97679,-0.39471 -0.21171,-0.63746 0.3068,-0.0975 0.48741,-0.33849 0.44017,-0.58668 -0.0748,-0.38993 -2.83326,-1.27217 -5.39141,-1.72471 -0.41803,-0.0742 -0.93044,-0.2775 -1.13928,-0.45273 -0.3672,-0.30799 -4.01021,-1.17767 -5.22598,-1.24753 -0.32833,-0.0179 -0.59685,-0.11063 -0.59685,-0.20453 -2.4e-4,-0.32892 -1.70946,-0.75964 -3.73451,-0.94073 -0.55559,-0.0478 -0.37498,-1.498227 0.22726,-1.820507 0.55558,-0.29723 2.25404,0.0299 2.90173,0.55379 0.47724,0.38813 2.70796,0.979537 3.7067,0.982407 0.52209,0.002 0.9494,0.11303 0.9494,0.24819 0,0.13516 0.17224,0.17882 0.38275,0.0981 0.21051,-0.0807 0.55499,-0.004 0.76568,0.17044 0.21051,0.17463 0.45392,0.2464 0.54123,0.15909 0.0873,-0.0873 0.31936,0.0359 0.51612,0.28048 0.23623,0.29065 0.3989,0.34089 0.48083,0.14832 0.0891,-0.21052 0.32892,-0.18839 0.86699,0.0801 0.40906,0.20394 1.02326,0.4007 1.36492,0.43718 0.34149,0.0359 0.78865,0.20513 0.99336,0.37497 0.26972,0.22367 0.42043,0.23085 0.54662,0.0299 0.12319,-0.19975 0.29603,-0.17762 0.59206,0.0754 1.19634,1.02188 6.367481,2.36857 6.367481,1.65821 0,-0.16028 0.26553,-0.19855 0.67221,-0.0963 1.02044,0.25597 1.48154,-0.70881 0.70826,-1.48214 -0.33371,-0.33371 -0.34567,-0.54602 -0.0795,-1.43304 0.24819,-0.82902 0.2476,-1.14473 -0.005,-1.548347 -0.26314,-0.42103 -0.24759,-0.55738 0.0909,-0.80503 0.3684,-0.26972 0.34747,-0.41086 -0.21888,-1.47557 -0.47246,-0.88834 -0.54542,-1.20865 -0.29723,-1.30398 0.24639,-0.0945 0.33012,-0.95317 0.33311,-3.41581 0.002,-1.80927 0.0598,-3.38501 0.12559,-3.50169 0.20453,-0.35763 -0.53406,-4.71656 -0.83009,-4.89975 -0.1531,-0.0945 -0.24281,-0.50236 -0.19915,-0.90676 0.0664,-0.62011 -0.0179,-0.74708 -0.55379,-0.81286 -0.34807,-0.0419 -1.00933,-0.25059 -1.46941,-0.4617 -0.459901,-0.21111 -1.257571,-0.35404 -1.772251,-0.31876 -0.51492,0.0359 -1.16356,-0.0538 -1.44202,-0.19376 -0.27869,-0.14234 -1.30392,-0.46349 -2.27862,-0.71371 -0.9747,-0.25059 -2.00723,-0.66754 -2.29441,-0.92686 -0.28706,-0.25955 -1.14167,-0.65426 -1.8988,-0.87757 -0.75713,-0.22308 -1.50104,-0.50715 -1.65307,-0.63118 -0.1519,-0.1238 -0.34148,-0.15968 -0.42162,-0.0801 -0.0795,0.0795 -0.37318,0.0239 -0.65253,-0.12679 -0.32893,-0.17582 -0.53705,-0.183 -0.59147,-0.0179 -0.0538,0.16626 -0.38335,0.16566 -0.96812,-0.002 -0.48621,-0.13935 -1.24717,-0.25358 -1.69068,-0.25358 -0.98481,0 -1.6063,-0.56216 -1.41791,-1.28257 0.22068,-0.84432 0.97296,-0.9357 3.57758,-0.43478 1.59416,0.3068 2.46533,0.37797 2.52245,0.20693 0.14772,-0.44316 0.73829,-0.29006 0.87345,0.22725 0.12379,0.47306 1.91788,1.19209 2.65282,1.06327 0.17403,-0.0299 0.31636,0.0939 0.31636,0.2757 0,0.36421 1.63202,1.14903 2.87859,1.38478 0.43598,0.0825 0.99072,0.25118 1.23311,0.37498 0.24221,0.12379 0.86897,0.24041 1.39244,0.25895 0.52329,0.0179 1.31846,0.186 1.766511,0.37199 1.58088,0.6563 1.67119,0.48083 0.70576,-1.37073 -0.4904,-0.93989 -0.99061,-1.87978 -1.112311,-2.08868 -0.308,-0.52867 -1.10657,-2.1083 -2.04778,-4.05076 -0.43837,-0.90508 -1.02678,-1.89013 -1.30721,-2.18891 -0.28048,-0.29903 -0.55379,-0.81149 -0.60702,-1.13928 -0.29603,-1.81639 -0.96961,-4.0138 -1.22988,-4.0138 -0.51492,0 -3.27515,0.76771 -3.55653,0.98923 -0.44615,0.35105 -2.14072,0.82883 -2.39094,0.67418 -0.37557,-0.23204 -0.012,-1.15704 0.45631,-1.15704 0.23443,0 0.53465,-0.0981 0.6667,-0.21769 0.13217,-0.11961 0.86717,-0.41684 1.63297,-0.66079 0.76586,-0.2434 1.73428,-0.59206 2.15202,-0.77471 0.41803,-0.1824 1.14179,-0.33371 1.60905,-0.3355 0.46707,-0.002 1.2428,-0.19078 1.72357,-0.41864 0.69051,-0.32773 0.95138,-0.35045 1.24227,-0.10944 0.47903,0.3977 0.0239,0.99796 -0.75767,0.99796 -0.92369,0 -1.20507,0.49459 -0.66916,1.17571 0.25597,0.32593 0.53884,1.02032 0.62891,1.54368 0.16147,0.94055 0.88182,2.85843 1.16613,3.10363 0.0807,0.0694 0.34568,0.55379 0.58848,1.07594 0.24281,0.5221 0.49878,0.94941 0.56875,0.94941 0.07,0 0.396501,-0.31338 0.726091,-0.69619 0.60833,-0.70684 1.23544,-0.65146 0.64738,0.0598 -0.25895,0.31159 -0.25775,0.38574 0.006,0.38574 0.17942,0 0.25298,0.073 0.16387,0.16267 -0.0897,0.0897 -0.35823,0.004 -0.59745,-0.19018 -0.23982,-0.19436 -0.35404,-0.21828 -0.25537,-0.0538 0.0987,0.16446 0.0634,0.37079 -0.0777,0.4581 -0.3995,0.247 -0.30321,0.70719 0.11422,0.54722 0.20454,-0.0784 0.43897,-0.0359 0.5215,0.0993 0.0825,0.13337 0.0239,0.24221 -0.13575,0.24221 -0.44914,0 -0.11244,0.94617 1.63954,4.61017 0.97985,2.04934 1.24771,2.21362 2.16936,1.33066 0.41266,-0.39531 0.75037,-0.85455 0.75037,-1.02027 0,-0.16566 0.17822,-0.44913 0.39591,-0.6301 0.26195,-0.21709 0.34507,-0.54961 0.2458,-0.98038 -0.11542,-0.49997 -0.0891,-0.56336 0.11363,-0.27211 0.22128,0.31876 0.38514,0.23682 1.01357,-0.50655 0.41205,-0.48741 0.75258,-0.97757 0.75629,-1.0894 0.004,-0.11184 0.29185,-0.62245 0.63979,-1.13474 0.34807,-0.51253 0.63292,-1.1275 0.63292,-1.36714 0,-0.57771 0.53226,-1.72537 0.80018,-1.72537 0.11662,0 0.21231,0.17105 0.21231,0.37976 0,0.56217 0.38335,0.4605 0.717,-0.18958 0.48023,-0.93756 0.9076,-1.55385 1.28622,-1.85634 0.19676,-0.15728 0.29006,-0.46229 0.20693,-0.67759 -0.20992,-0.54661 -2.84958,-0.71771 -3.81567,-0.24759 -0.86137,0.41923 -1.43286,0.25537 -1.43286,-0.41086 0,-0.31696 0.23683,-0.54661 0.68058,-0.65767 0.37438,-0.0939 0.81759,-0.35823 0.98498,-0.58728 0.24819,-0.3391 0.41923,-0.36362 0.92506,-0.13337 0.34149,0.15549 0.7664,0.19257 0.9445,0.0825 0.1848,-0.11422 0.63477,-0.0239 1.04688,0.21351 0.56037,0.32055 0.82621,0.34926 1.18193,0.12858 0.37736,-0.23444 0.5813,-0.16327 1.14795,0.40368 0.37916,0.37916 1.14215,0.90616 1.69594,1.17145 0.55379,0.26554 1.00825,0.61247 1.00987,0.77143 0.006,0.55558 -1.17098,0.59565 -2.24597,0.0759 -1.19078,-0.57532 -1.42342,-0.51911 -1.65372,0.3983 -0.0885,0.35285 -0.38575,0.86675 -0.66097,1.14167 -0.2751,0.2751 -0.49997,0.78715 -0.49997,1.13827 0,0.41624 -0.19795,0.72872 -0.56934,0.89803 -0.5801,0.26433 -2.46844,2.75221 -2.46844,3.25218 0,0.15131 -0.11363,0.2751 -0.25297,0.2751 -0.13935,0 -0.25298,0.14951 -0.25298,0.33192 0,0.1824 -0.22905,0.57771 -0.50894,0.87829 -0.27988,0.30022 -0.49458,0.63525 -0.47664,0.74397 0.0867,0.52629 -0.0622,0.83063 -0.40727,0.83063 -0.20872,0 -0.37976,0.10825 -0.37976,0.24102 0,0.32593 2.45833,0.0179 3.27856,-0.40727 0.35524,-0.1854 0.78757,-0.3379 0.96106,-0.3385 0.54602,-0.003 3.4746,-1.07756 3.64373,-1.33735 0.0891,-0.13636 0.59745,-0.28707 1.13067,-0.33491 0.53286,-0.0479 1.28167,-0.31816 1.6637,-0.6005 0.38216,-0.28228 0.90025,-0.51372 1.15161,-0.51372 0.25118,0 0.85413,-0.21052 1.33944,-0.46768 0.48502,-0.25716 1.21512,-0.54901 1.62191,-0.64864 0.81777,-0.20035 1.98115,-1.01567 1.76191,-1.23491 -0.25178,-0.25178 0.86914,-0.68925 1.32174,-0.51552 0.36242,0.13935 0.34867,0.0759 -0.0795,-0.35225 -0.28706,-0.28706 -0.62005,-0.68267 -0.7402,-0.87943 -0.12021,-0.19675 -0.58848,-0.61611 -1.04126,-0.93194 -0.45272,-0.31576 -0.82286,-0.79426 -0.82286,-1.06326 -0.0745,-1.215865 1.994,0.446469 2.27856,0.78254 0,0.13576 0.11303,0.24699 0.25118,0.24699 0.13815,0 0.54422,0.25657 0.90293,0.56935 0.74876,0.6545 2.69857,1.40732 3.71938,1.43609 0.4282,0.012 0.69625,0.16028 0.69625,0.38454 0,0.53107 -0.43299,0.71928 -1.74606,0.75797 -0.64099,0.0179 -1.6066,0.22965 -2.14574,0.46827 -0.53944,0.23862 -1.13061,0.43418 -1.31427,0.43418 -0.1836,0 -0.40428,0.11363 -0.4904,0.25298 -0.0861,0.13934 -0.37737,0.25297 -0.64786,0.25297 -0.27032,0 -0.4916,0.0993 -0.4916,0.22068 0,0.12141 -0.43179,0.29006 -0.95891,0.37438 -0.52748,0.0843 -1.20626,0.38395 -1.50846,0.66533 -0.30321,0.28228 -0.89665,0.51193 -1.32306,0.51193 -0.42521,0 -0.97141,0.11243 -1.2132,0.24938 -0.24161,0.13696 -1.18013,0.48323 -2.08521,0.76891 -0.90509,0.28587 -2.1583,0.75761 -2.78493,1.04862 -0.62658,0.29125 -1.36714,0.61432 -1.64559,0.71862 -0.27869,0.10406 -0.82501,0.31756 -1.21452,0.47425 -0.38932,0.15669 -1.01608,0.29304 -1.39243,0.30321 -0.81687,0.0239 -2.65384,0.79409 -2.57717,1.08264 0.0299,0.11184 -0.31158,0.76796 -0.75892,1.45804 -0.77663,1.19849 -0.80635,1.33652 -0.66425,3.08192 0.0819,1.00496 0.23742,2.39686 0.34567,3.09311 0.11303,0.72663 0.0927,1.5548 -0.0478,1.94425 -0.16985,0.47126 -0.14952,0.88589 0.0652,1.35745 0.19018,0.41804 0.22068,0.7899 0.0784,0.96728 -0.12679,0.15849 -0.22427,0.9204 -0.2165,1.69326 0.44854,2.17067 0.32355,1.43663 0.17703,3.46844 0.002,0.93995 -0.006,1.879837 -0.018,2.088677 -0.0359,0.68052 0.57951,3.66466 0.80958,3.91195 0.13755,0.14832 0.58968,-0.10705 1.17307,-0.66198 0.5221,-0.49638 1.40476,-1.20232 1.96172,-1.56832 1.35428,-0.89002 4.30212,-3.597617 7.35569,-6.756147 0.50415,-0.5215 0.56216,-0.70785 0.30441,-0.98008 -0.26255,-0.27749 -0.15729,-0.3074 0.60193,-0.17283 0.84283,0.14951 1.01896,0.067 2.09843,-0.982 0.64811,-0.62986 1.34621,-1.14526 1.5514,-1.14526 0.28945,0 0.33909,-0.2135 0.22068,-0.95287 -0.14533,-0.90844 -0.0861,-1.01178 1.27067,-2.21529 1.48944,-1.32133 5.17604,-4.96206 7.7461,-7.64975 l 1.50803,-1.57705 -0.63207,-0.41445 c -0.34747,-0.22786 -0.63208,-0.55798 -0.63208,-0.7338 0,-0.17583 -0.17104,-0.4617 -0.37976,-0.63477 -0.47186,-0.39172 -0.49937,-1.26589 -0.0419,-1.26589 0.18719,0 0.74989,0.4904 1.25099,1.09018 0.8158,0.97613 1.00532,1.07918 1.81209,0.98499 0.82046,-0.0957 0.90096,-0.0479 0.90096,0.52807 0,0.67191 0.38992,0.93403 1.63404,1.09778 1.02021,0.13396 1.32223,0.49279 0.69685,0.82782 -0.37438,0.20034 -0.8155,0.17941 -1.67238,-0.0784 -1.08851,-0.32773 -1.21727,-0.31457 -1.9872,0.19796 -0.45272,0.30141 -1.03205,0.9738 -1.28717,1.4941 -0.25537,0.5203 -0.56695,0.94605 -0.6929,0.94605 -0.12619,0 -1.31421,1.05388 -2.64068,2.3419 -1.32641,1.28801 -2.80204,2.68362 -3.27922,3.10135 -1.30255,1.14036 -0.63662,1.15525 3.6036,0.0801 2.04945,-0.5197 4.02055,-0.94946 4.38028,-0.9555 0.36002,-0.006 0.72765,-0.0849 0.81765,-0.17463 0.0903,-0.0903 0.99198,-0.20692 2.0043,-0.26015 1.01237,-0.0538 2.41031,-0.183 3.10656,-0.28886 1.25405,-0.19077 1.26529,-0.20034 1.20698,-1.06919 -0.0299,-0.48202 -0.19437,-1.30859 -0.36062,-1.83642 -0.25178,-0.80157 -0.23862,-1.02272 0.0807,-1.3419 0.60852,-0.60852 1.06034,0.18539 1.18061,2.07492 0.0622,0.97387 0.21769,1.62065 0.38993,1.62299 0.15788,0.002 0.45272,0.10884 0.65504,0.23682 0.31816,0.20155 0.31995,0.32295 0.012,0.89791 -0.28228,0.52688 -0.29304,0.76604 -0.0538,1.15226 0.35704,0.57174 0.40249,1.66939 0.0777,1.87034 -0.12499,0.0771 -0.49518,-0.001 -0.82279,-0.17463 -0.42342,-0.22367 -0.59626,-0.53526 -0.59626,-1.07463 0,-0.67299 -0.10107,-0.77525 -0.88612,-0.89738 -0.48741,-0.076 -1.17092,-0.0478 -1.51905,0.0598 -0.34806,0.10825 -1.54434,0.23264 -2.65832,0.2763 -1.16009,0.0478 -2.40391,0.25357 -2.91148,0.48681 -0.4874,0.22427 -1.05699,0.41146 -1.26588,0.41624 -0.45512,0.012 -0.97847,0.14592 -1.59326,0.41146 -0.24939,0.10765 -0.51133,0.13815 -0.5819,0.0682 -0.0706,-0.0706 -0.60672,-0.0179 -1.19161,0.11662 -0.5849,0.13456 -1.23485,0.27989 -1.44429,0.32355 -1.52419,0.31577 -2.549,0.71006 -2.4691,0.94982 0.0538,0.15549 0.66694,0.47784 1.36678,0.71562 0.69983,0.23802 1.71861,0.70677 2.26385,1.04192 0.54542,0.33491 1.65312,0.81215 2.46186,1.05998 0.80874,0.24759 1.53101,0.60827 1.60498,0.80109 0.11363,0.29543 1.67932,1.38651 1.99013,1.38651 0.0538,0 0.51372,-0.7405 1.02003,-1.64559 0.89695,-1.6039 1.2016,-1.89097 1.49793,-1.41145 0.14413,0.23324 -0.33371,1.54966 -0.65002,1.79121 -0.0909,0.0694 -0.38993,0.52688 -0.66347,1.0162 -0.38395,0.6862 -0.43419,0.99007 -0.22068,1.32917 0.38335,0.60779 -0.0831,1.29046 -0.99205,1.45224 -0.49039,0.0873 -1.07218,0.590267 -1.87171,1.618127 -1.29357,1.66282 -1.63434,1.84223 -1.73583,0.91358 -0.0478,-0.46109 0.2757,-1.01088 1.20154,-2.02541 0.69894,-0.765797 1.27121,-1.473767 1.27175,-1.573157 0.001,-0.24401 -1.81448,-1.46492 -2.17875,-1.46492 -0.15968,0 -0.43598,-0.17583 -0.61473,-0.39112 -0.17882,-0.2153 -0.50236,-0.32295 -0.71952,-0.23982 -0.21709,0.0831 -0.31816,0.0748 -0.22426,-0.0179 0.1818,-0.18181 -3.61012,-2.13085 -4.16314,-2.14024 -0.18001,-0.003 -0.83068,-0.23443 -1.44637,-0.51372 -0.76676,-0.34806 -1.20154,-0.42581 -1.37982,-0.24759 -0.14293,0.14293 -0.41564,0.26015 -0.60522,0.26015 -0.18959,0 -1.22834,0.76903 -2.30805,1.70892 -1.07972,0.93995 -2.95238,2.54188 -4.16152,3.55988 -1.20919,1.018057 -2.19848,2.014877 -2.19848,2.215287 0,0.20035 -0.16985,0.36421 -0.37737,0.36421 -0.20752,0 -0.5197,0.22786 -0.69385,0.50655 -0.17404,0.27869 -0.47665,0.50654 -0.67227,0.50654 -0.19556,0 -0.88051,0.42462 -1.52143,0.9442 -1.59775,1.29448 -1.79821,1.5032 -1.61748,1.68399 0.26074,0.26075 1.33825,0.17582 1.33825,-0.10526 0,-0.17882 0.15968,-0.17642 0.50116,0.006 0.2757,0.14772 0.75982,0.21171 1.07595,0.14293 0.31637,-0.0688 1.03056,-0.18838 1.58752,-0.26553 0.55678,-0.0771 1.6963,-0.2464 2.53177,-0.37677 2.88624,-0.44973 3.55576,-0.51492 6.38895,-0.62185 1.56443,-0.0598 2.96285,-0.18061 3.10752,-0.26972 0.14472,-0.0891 0.60205,-0.0879 1.01638,0.003 0.91208,0.20035 1.01076,0.92135 0.1836,1.34232 -0.48502,0.24699 -4.7412,0.55858 -6.77236,0.49578 -1.93899,-0.0598 -3.49726,0.0885 -7.14206,0.67974 -1.35207,0.21949 -2.54834,0.37797 -2.65833,0.35285 -0.35404,-0.0813 -2.20763,0.31996 -2.79186,0.60493 -0.35524,0.17283 -0.48622,0.37916 -0.35106,0.5514 0.11842,0.1513 0.22547,0.44614 0.23803,0.6551 0.1202,2.04335 0.36241,4.05494 0.55977,4.64946 0.13217,0.3989 0.17583,0.83039 0.0963,0.95873 -0.26672,0.43179 0.17882,2.24017 0.552,2.24017 0.66623,0.012 0.12021,0.70037 0.13038,0.75952 -0.23205,0 -0.19855,1.85419 0.067,3.67106 0.0813,0.55678 0.20812,1.81017 0.28108,2.78487 0.22068,2.93468 0.40667,4.03335 0.72047,4.24183 0.42641,0.28348 2.52089,-0.0299 4.72864,-0.70539 2.95406,-0.90497 4.37574,-1.39651 5.0635,-1.75079 0.34806,-0.17941 0.77788,-0.27391 0.95502,-0.20991 0.17702,0.064 1.08851,-0.11363 2.02535,-0.39412 0.93684,-0.28048 2.89013,-0.75647 4.34057,-1.058 1.45051,-0.30142 2.88379,-0.64189 3.18508,-0.75642 0.83805,-0.31876 3.69803,-1.00442 4.61801,-1.10734 0.45093,-0.0479 0.99438,-0.23683 1.20788,-0.41385 0.2135,-0.17702 0.65701,-0.35165 0.98558,-0.38754 0.76933,-0.0843 1.78458,-0.75288 2.27097,-1.49518 0.37677,-0.57472 1.62017,-3.45049 1.8125,-4.19141 0.28348,-1.09204 0.94928,-2.6301 1.86914,-4.31779 0.56516,-1.03672 1.02906,-2.14131 1.03098,-2.45463 0.002,-0.31338 0.11781,-0.56994 0.25656,-0.56994 0.13934,0 0.25297,-0.33371 0.25297,-0.7411 0,-0.97272 1.02571,-1.80407 2.11614,-1.7152 0.73243,0.0598 0.79331,0.13456 0.76926,0.94414 -0.0771,2.59313 -0.10824,2.77805 -0.46647,2.77805 -0.49578,0 -0.89109,0.72633 -2.68608,4.93689 -0.59386,1.39243 -1.08019,2.69773 -1.08121,2.90059 -0.001,0.20274 -0.14472,0.64427 -0.31935,0.98092 -0.17463,0.3367 -0.26195,0.75724 -0.19377,0.93469 0.0682,0.17762 0.002,0.3977 -0.14652,0.4898 -0.14892,0.0921 -0.26673,0.36002 -0.26195,0.59505 0.0179,0.78608 0.8878,1.49327 2.53596,2.05591 0.89815,0.3068 1.86083,0.66055 2.13934,0.78656 0.27869,0.12618 1.24687,0.47784 2.15196,0.78188 0.90508,0.30381 2.30619,0.88703 3.11349,1.29567 0.80737,0.40847 1.60654,0.68979 1.77591,0.62479 0.16925,-0.0652 0.59087,0.26373 0.9372,0.73015 0.34627,0.46648 0.75121,0.85144 0.90024,0.85527 0.38275,0.012 2.38741,1.76287 2.38741,2.08749 0,0.46887 -0.85647,0.9412 -1.72148,0.94952 -0.92189,0.006 -2.0903,-0.51253 -2.8491,-1.27127 -0.27092,-0.27092 -0.64249,-0.49279 -0.82531,-0.49279 -0.183,0 -0.65253,-0.33431 -1.04383,-0.7426 -0.74732,-0.78003 -5.72344,-3.40373 -6.59665,-3.47807 -0.82638,-0.0706 -1.32187,-0.2153 -1.68548,-0.49399 -0.77483,-0.59326 -2.75957,-1.16015 -3.09268,-0.88373 -0.23922,0.19855 -0.4617,0.17583 -0.81449,-0.0831 -0.48083,-0.35225 -1.48507,-0.31098 -2.51102,0.10406 -0.60546,0.2446 -2.94,0.76652 -4.17736,0.93349 -0.48741,0.0658 -1.22786,0.27212 -1.64559,0.45871 -0.41744,0.18659 -1.72794,0.53286 -2.91154,0.77058 -1.18354,0.23743 -2.37981,0.55439 -2.65832,0.7039 -0.27869,0.14952 -0.96202,0.34986 -1.51904,0.44435 -1.64452,0.27989 -5.29685,1.28712 -5.55712,1.5328 -0.13217,0.12499 -0.40787,0.22726 -0.613,0.22726 -0.20513,0 -0.56097,0.17044 -0.79158,0.37916 -0.23025,0.20872 -1.02966,0.44016 -1.77584,0.51432 -0.74619,0.0742 -1.52239,0.27271 -1.72483,0.44076 -0.35823,0.29723 -1.9927,0.8338 -3.39889,1.11554 -0.72226,0.14473 -0.97213,0.58848 -0.33132,0.58848 0.51552,0 0.74188,0.46767 0.41624,0.86029 -0.1513,0.18241 -0.28347,0.83261 -0.29304,1.44465 -0.012,0.6121 -0.1232,1.9104 -0.25178,2.8851 -0.12858,0.97476 -0.29244,2.22797 -0.36421,2.78493 -0.0718,0.55678 -0.18898,2.20895 -0.26015,3.671 -0.0712,1.4621 -0.21649,3.59821 -0.32295,4.747 -0.10645,1.14879 -0.0999,2.08869 0.012,2.08869 0.11422,0 0.0867,0.22666 -0.0616,0.50415 -0.28228,0.52688 -0.36422,8.00302 -0.11842,10.76205 0.36481,4.09095 0.65678,5.95901 0.90808,5.80376 0.1214,-0.0748 0.10825,0.15908 -0.0299,0.5197 -0.27391,0.71999 0.11662,1.65169 0.69152,1.65169 0.17523,0 0.31876,0.11423 0.31876,0.25297 0,0.13935 -0.20872,0.25298 -0.46409,0.25298 -0.25536,0 -0.48501,0.14233 -0.51013,0.31637 -0.0239,0.17403 -0.11363,0.80066 -0.19556,1.39243 l -0.14952,1.07601 h 0.90007 c 0.49518,0 0.99126,-0.1537 1.10262,-0.34149 0.11123,-0.18778 0.54422,-0.41923 0.96196,-0.51432 0.55379,-0.12559 0.65665,-0.10286 0.37976,0.0843 -0.29005,0.19616 -0.15908,0.25775 0.55439,0.26075 0.51372,0.002 0.99874,-0.10048 1.07732,-0.22726 0.13396,-0.21709 0.55439,-0.31099 3.05172,-0.68142 0.55678,-0.0825 1.11572,-0.2135 1.24167,-0.29065 0.12619,-0.0771 0.52449,-0.17284 0.88607,-0.21171 2.09759,-0.22726 5.06522,-0.67819 5.72062,-0.86908 0.41804,-0.122 1.32916,-0.29245 2.02541,-0.37916 6.03299,-0.75187 8.00894,-0.93697 10.75984,-1.00807 2.94814,-0.0765 4.28537,-0.20454 9.06378,-0.87064 1.01662,-0.14174 2.44069,-0.31458 3.16469,-0.38395 0.72399,-0.0694 1.68661,-0.23503 2.13915,-0.3672 0.45273,-0.13277 0.8228,-0.18898 0.8228,-0.12559 0,0.0634 0.34986,-0.0652 0.77698,-0.28647 0.85629,-0.44255 2.24202,-1.8555 2.25369,-2.29752 0.004,-0.15489 0.2739,-0.67346 0.59912,-1.15297 0.32534,-0.47964 0.97452,-1.60624 1.44249,-2.50379 0.46768,-0.89755 1.05615,-1.93433 1.30716,-2.30392 0.25118,-0.36959 0.45631,-0.81574 0.45631,-0.99144 0,-0.17583 0.17403,-0.49997 0.38633,-0.72047 1.15537,-1.20022 2.14598,-2.35667 2.14801,-2.50768 0.003,-0.20692 1.93421,-2.30541 2.68273,-2.91482 0.62209,-0.50655 1.36576,-0.31876 1.36576,0.34507 0,0.25298 -0.45571,0.84959 -1.01274,1.32635 -0.55678,0.47665 -1.01267,0.9326 -1.01267,1.01298 0,0.0801 -0.31338,0.4892 -0.69625,0.90885 -1.79946,1.97128 -3.83851,5.13442 -4.37962,6.794 -0.17284,0.52987 -0.38335,1.02051 -0.46708,1.09012 -0.0843,0.0694 -0.38275,0.46828 -0.66317,0.88607 -1.45422,2.16571 -1.47874,3.05346 -0.073,2.63482 0.81537,-0.24281 3.49176,-0.62293 6.26323,-0.88953 0.75707,-0.073 1.56019,-0.23085 1.78476,-0.35106 0.22486,-0.12021 1.08629,-0.29543 1.9149,-0.38873 2.03737,-0.23025 3.93725,-0.73745 5.57799,-1.48866 1.41707,-0.64876 4.09119,-1.41552 4.93665,-1.41552 0.30321,0 0.48621,0.17523 0.48621,0.46588 0,0.35943 -0.33252,0.54243 -1.45577,0.80198 -0.80067,0.1848 -1.56969,0.41505 -1.70892,0.51193 -0.13935,0.0969 -0.7359,0.24998 -1.32581,0.33969 -0.59028,0.0903 -1.46205,0.38215 -1.93786,0.64954 -0.47604,0.26733 -0.91304,0.43837 -0.97159,0.37976 -0.0598,-0.0598 -0.72447,0.0478 -1.47999,0.24281 -0.75545,0.19197 -2.01135,0.41504 -2.79085,0.49578 -0.7795,0.0807 -1.74786,0.27391 -2.15196,0.43 -0.40428,0.15549 -1.30441,0.32952 -2.00065,0.38574 -4.05728,0.32833 -4.68374,0.47425 -4.68374,1.09114 0,0.47784 0.18121,0.62089 2.65833,2.09783 0.97476,0.5813 1.88618,1.19891 2.02541,1.3727 0.23383,0.29185 1.36241,0.98038 2.915,1.77841 0.34986,0.18002 1.24449,0.95843 1.98763,1.73004 0.74313,0.7716 1.45487,1.33879 1.58159,1.26044 0.12679,-0.0783 0.5837,0.21052 1.01495,0.64207 0.49877,0.49877 0.94366,0.73386 1.22181,0.64559 0.26075,-0.0825 0.7045,0.10884 1.09766,0.47306 1.37073,1.27037 4.27365,1.70347 6.32394,0.94348 0.31158,-0.11543 1.31959,-0.34986 2.23963,-0.5209 1.63016,-0.30262 3.09316,-0.99797 3.0129,-1.43149 -0.0239,-0.11842 0.0712,-0.25238 0.20633,-0.29723 0.13516,-0.0478 0.22965,0.1232 0.20872,0.37318 -0.0239,0.28647 0.10346,0.42162 0.34268,0.36481 0.20872,-0.0478 0.80695,-0.15011 1.32916,-0.22307 0.5221,-0.073 0.9494,-0.23683 0.9494,-0.36362 0,-0.12738 0.14234,-0.20273 0.31637,-0.16864 0.5203,0.10226 2.97475,-0.57832 2.97475,-0.82471 0,-0.12559 2.33328,-0.58131 2.66652,-0.58131 1.47251,-0.24759 3.12587,-0.79181 4.79269,-1.29208 1.66688,-0.49997 3.37658,-1.13288 4.90298,-1.67453 1.5264,-0.54183 2.52298,-0.81969 3.47902,-1.39333 1.11004,-0.66599 2.22259,-0.45811 2.46378,-0.44854 0.0538,0.002 3.82117,-1.44297 3.82117,-1.44297 0.0179,-7.8e-4 0.50834,-0.7652 0.48621,-0.71108 -0.0239,0.0538 0.26015,0.16147 0.20812,0.25597 -0.0538,0.0945 0.0598,0.23443 -0.012,0.35404 -0.0718,0.11961 0.85013,-0.19317 0.76855,-0.0628 -0.0813,0.13038 0.64565,0.60541 0.57712,0.97751 -0.0658,0.35704 -0.49578,0.43658 -0.8518,0.67813 -0.31637,0.2147 -0.98869,0.39172 -1.07433,0.42282 -0.52449,0.19197 -1.5624,0.32952 -1.5624,0.32952 -0.27929,0.0598 -0.0359,0.4306 -0.18719,0.55021 -0.0939,0.0742 -0.24879,0.0813 -0.35764,0.0299 -0.183,-0.0831 -0.3654,-0.49698 -0.35344,-0.48801 0.0478,0.0359 -1.96555,0.18959 -1.91812,0.22666 0.0478,0.0359 -6.5579,2.10747 -6.51023,2.1467 0.0478,0.0419 -2.32784,0.77238 -2.35966,0.82566 -0.21769,0.36362 -2.49577,0.84546 -2.44865,0.88535 0.0478,0.0419 -2.52567,0.75635 -2.47879,0.79499 0.0479,0.0359 -1.87888,0.4294 -1.83236,0.46647 0,0 0.50715,-0.0239 -1.39542,0.51911 -0.17403,0.11243 -0.43538,0.13157 -0.5807,0.0419 -0.14533,-0.0897 -0.40189,-0.0598 -0.56935,0.067 -0.46887,0.35404 -2.47185,0.90239 -3.54582,0.97081 -0.82375,0.0538 -2.98295,0.66311 -4.8909,1.38328 -0.59207,0.22367 -0.95777,1.45918 -0.57054,1.92781 0.13277,0.16028 0.54961,0.3684 0.92692,0.46229 0.37737,0.0939 1.02762,0.32115 1.44536,0.50415 1.12421,0.49339 1.49949,0.60894 4.68373,1.44608 3.4435,0.90527 2.96178,0.79666 5.31665,1.19855 1.04437,0.17822 2.12666,0.41445 2.40517,0.52509 0.6597,0.26194 4.70801,1.26236 6.32932,1.56371 1.25094,0.23264 3.32156,0.81484 4.30397,1.21039 0.73374,0.29544 3.44039,0.77268 4.38244,0.77268 0.68159,0 0.8076,0.0939 0.8076,0.60194 0,0.90287 -0.47126,1.14508 -1.7722,0.91118 -1.91231,-0.34388 -4.02564,-0.92422 -4.36353,-1.19855 -0.61904,-0.50236 -5.45898,-1.69092 -6.63786,-1.6298 -0.27211,0.012 -0.61389,-0.0712 -0.75952,-0.18958 -0.41863,-0.34029 -6.80638,-1.87536 -8.88555,-2.13569 -0.28527,-0.0359 -0.65869,-0.1513 -0.82932,-0.25656 -0.17044,-0.10526 -0.93385,-0.25596 -1.69612,-0.33491 -0.76227,-0.0783 -1.38598,-0.25417 -1.38598,-0.39052 0,-0.13636 -0.22785,-0.18779 -0.50654,-0.11483 -0.27869,0.073 -0.50655,0.0538 -0.50655,-0.0478 0,-0.0975 -0.65504,-0.39591 -1.45571,-0.66318 -2.82536,-0.94354 -4.62046,-1.87015 -4.62046,-2.38507 0,-0.68237 -0.52987,-0.78261 -1.2367,-0.23384 -0.33192,0.25776 -0.75258,0.46827 -0.93445,0.46827 -0.68345,0 -0.62323,0.54901 0.17403,1.58686 0.45272,0.58908 1.07117,1.29932 1.37414,1.57783 0.4569,0.41983 1.11039,1.71969 2.22784,4.43052 0.0861,0.20872 0.44316,0.83548 0.79314,1.3925 0.34985,0.55678 0.71448,1.18353 0.80969,1.39243 0.0951,0.20872 0.23862,0.43658 0.31816,0.50655 0.0795,0.0694 0.42282,0.63925 0.76257,1.26589 0.3397,0.62657 1.0189,1.76585 1.50948,2.53171 0.4904,0.76586 0.91651,1.54721 0.94647,1.73632 0.0299,0.18898 0.2745,0.58788 0.54362,0.88612 0.73871,0.81849 2.78822,3.90861 2.96794,4.47484 0.0867,0.2739 0.24878,0.49817 0.35942,0.49817 0.11064,0 0.63908,0.88296 1.17397,1.96208 1.27881,2.5798 1.52305,2.85669 2.37072,2.68715 0.37677,-0.0754 1.10478,0.0359 1.61724,0.25237 0.81819,0.34209 1.03798,0.34508 1.80186,0.0239 1.08068,-0.45152 4.14208,-0.84707 8.11767,-1.04885 3.0626,-0.54183 4.89837,-0.5221 6.64114,0.35524 4.08269,2.06021 5.48314,2.86842 6.05547,3.49463 0.51791,0.56635 0.56396,0.57353 0.9494,0.14772 0.22308,-0.2464 0.40488,-0.52927 0.40488,-0.62975 0,-0.46468 1.80934,-2.94269 2.14885,-2.94269 0.53406,0 0.47963,0.36361 -0.22307,1.4767 -0.4294,0.68064 -0.53884,1.08061 -0.37498,1.37348 0.16028,0.28646 0.0777,0.66556 -0.26972,1.23652 -0.39232,0.64482 -0.43598,0.90114 -0.20274,1.18222 0.23683,0.28527 0.17702,0.45691 -0.29184,0.83625 -0.32415,0.26254 -0.7295,0.47724 -0.90061,0.47724 -0.17104,0 -0.87051,0.7008 -1.55426,1.5572 -1.31625,1.64876 -1.42144,1.79851 -2.32234,3.30685 -0.74535,1.24776 -1.36367,1.28293 -1.28222,0.073 0.0359,-0.48741 0.14055,-0.88613 0.23862,-0.88613 0.2165,0 3.34554,-3.68678 3.49111,-4.11307 0.0598,-0.16746 -0.20513,-0.0993 -0.59147,0.15429 -0.80091,0.52449 -1.15836,0.37976 -0.55379,-0.22426 0.5203,-0.52031 0.52389,-0.88009 0.006,-0.88009 -0.4001,0 -2.68673,-1.47413 -2.84737,-1.83553 -0.0478,-0.10466 -0.23623,-0.19018 -0.42162,-0.19018 -0.1854,0 -0.37558,-0.0855 -0.42222,-0.18958 -0.0478,-0.10466 -0.89462,-0.58848 -1.88493,-1.07601 -0.99025,-0.48741 -1.75168,-1.0165 -1.69206,-1.17588 0.14892,-0.3977 -3.79659,-0.56755 -6.25456,-0.26912 -1.04437,0.12678 -2.28706,0.25716 -2.76149,0.28945 -0.54063,0.0359 -1.03671,0.27391 -1.32916,0.63531 -0.25656,0.31696 -0.46648,0.44973 -0.46648,0.29484 0,-0.41565 -0.4288,-0.34149 -0.60014,0.10406 -0.0813,0.2123 0.0772,0.61054 0.35285,0.88607 0.2751,0.2751 0.50057,0.56874 0.50057,0.65223 0,0.29304 0.8552,2.00872 1.37413,2.75634 0.28826,0.41564 0.65169,0.9854 0.80689,1.26589 0.15549,0.28048 0.69307,1.1812 1.1952,2.00172 0.50236,0.82059 0.84271,1.60552 0.75695,1.74439 -0.2476,0.40129 -0.0903,3.31151 0.18898,3.48393 0.13875,0.0855 0.18779,0.32354 0.10944,0.52867 -0.0783,0.20513 0.0299,0.79044 0.2446,1.30076 0.21351,0.51013 0.38754,1.33029 0.38754,1.82213 0,0.70605 0.0999,0.89426 0.47545,0.89426 0.26134,0 0.60737,-0.15908 0.76879,-0.35345 0.37497,-0.45212 1.29011,-0.22307 1.27952,0.31996 -0.0179,1.02469 -0.56874,1.26912 -2.818,1.25446 -1.18796,-0.006 -2.39776,0.11304 -2.68841,0.26853 -0.80611,0.43119 -2.3212,0.35763 -2.50534,-0.1226 -0.21709,-0.56576 0.24879,-0.78273 2.10692,-0.98176 1.48352,-0.15908 1.59877,-0.2147 1.48328,-0.72178 -0.33191,-1.45774 -0.66192,-3.71735 -0.71478,-4.89736 -0.0419,-0.87518 -0.22068,-1.48884 -0.54722,-1.84964 -0.40368,-0.44614 -0.43538,-0.62472 -0.1836,-1.02864 0.16805,-0.26912 0.30501,-0.59147 0.30501,-0.71652 0,-0.21949 -0.99031,-1.80892 -3.06769,-4.92445 -0.54064,-0.81083 -0.98307,-1.56766 -0.98307,-1.68183 0,-0.38813 -0.77758,-0.50774 -1.27588,-0.19676 -0.27271,0.17045 -0.49638,0.39651 -0.49638,0.50236 0,0.39053 -0.0831,0.57832 -0.3666,0.82519 -0.44016,0.38455 -1.08079,2.58524 -1.28072,4.40121 -0.0419,0.36422 -0.27032,1.68764 -0.51193,2.94085 -0.24161,1.2532 -0.4581,2.45145 -0.48143,2.6628 -0.0239,0.21111 -0.13037,0.52748 -0.23802,0.70193 -0.10825,0.17463 -0.17164,0.62849 -0.14174,1.00825 0.0299,0.37976 -0.0299,0.89157 -0.13635,1.13731 -0.10526,0.2458 -0.12739,0.69146 -0.0479,0.99037 0.0784,0.29902 0.012,0.78141 -0.14592,1.07218 -0.43239,0.79355 -0.41863,1.50498 0.0359,1.84049 0.32414,0.23982 0.34208,0.36361 0.0891,0.62012 -0.36361,0.36899 -5.37998,0.4874 -5.38028,0.12738 z m 3.46401,-23.49976 c -0.0807,-0.20214 -0.14114,-0.14173 -0.1531,0.1531 -0.012,0.26673 0.0478,0.41625 0.13277,0.33252 0.0843,-0.0843 0.0933,-0.30261 0.0179,-0.48502 z M 36.664795,116.50125 c 0,-0.22845 0.177022,-0.54482 0.394114,-0.70312 0.216493,-0.15848 0.419231,-0.45571 0.45033,-0.66084 0.0299,-0.20513 0.123198,-0.48682 0.205728,-0.62604 0.246994,-0.41923 0.782725,-3.61747 0.66497,-3.97068 -0.0604,-0.18061 0.04784,-0.4892 0.246994,-0.68518 0.196159,-0.19616 0.301416,-0.56755 0.233836,-0.82483 -0.06758,-0.25776 -0.01794,-0.53226 0.107051,-0.61013 0.126188,-0.0778 0.231444,-0.50535 0.233239,-0.9497 0.002,-0.44435 0.11004,-0.97542 0.239219,-1.18025 0.471261,-0.74528 0.584293,0.0239 0.267925,1.82381 -0.178218,1.0119 -0.342083,2.06769 -0.364211,2.3462 -0.02392,0.27869 -0.31876,1.63477 -0.659288,3.01398 -0.461095,1.8689 -0.734283,2.53782 -1.071463,2.62597 -0.352848,0.0921 -0.388731,0.19497 -0.162669,0.46708 0.230249,0.27749 0.180013,0.34866 -0.247592,0.34866 -0.328926,0 -0.537047,-0.16088 -0.537047,-0.41505 z M 67.460439,80.079663 c -0.17284,-0.45093 0.0538,-1.13928 0.37198,-1.13928 0.1244,0 0.22606,-0.12141 0.22606,-0.26913 0,-0.14831 0.35405,-1.0034 0.78692,-1.90083 0.73942,-1.53316 1.13832,-2.0653 1.37258,-1.8311 0.18419,0.18479 -0.60308,2.78038 -0.97201,3.20368 -0.20035,0.22965 -0.50117,0.84486 -0.6688,1.36702 -0.31158,0.97123 -0.85598,1.24884 -1.11661,0.56934 z"
       id="path850"
       inkscape:connector-curvature="0"
       sodipodi:nodetypes="cccccccccccccccscssccscscccsscccscsccccccccccscccccccccscssscccsssccsscccaacsccscccscccccsccccccsccccccccscccccccsccccsscccsccccccccscccccccscsssccccssscscssccscsccsscccccssccsccccscscccccsccsccccccsscccsscsccccsccssccscscscscccscsccscscsscccccscccccccscscccsccccccscscscsccccssccccsccccccccssccscccccccccscccsccccccccccscccsccccccscccccscccccccccscccccccscccccscccsscsccsccsscccccscscssccsccccccsscsccccccsssccccscccccccccsccscsssccsscccccscccccccccsccsccssssscscscccccccccccccccccccccscccccsssccsscsccssccccccccccccccccssscscccccccsscscccscsccccsccccssssssscsscscccccccccccccccccccssccccscccccsscssccscccccccccccccsccscccccccsscccsscccsccccccscsccssscccsccccccccccccccscccccscccssscccccccccsscccccssccscccccccccccccccscscsssssssssasssaassssssccccccccccscccsscccccccscscscscccccccscccsccccccccsscccccscscsccsscscscccssccscccccccssccccscscccscscscccccccsccccccccccccccccccccsccccsscsscsccccs" />
    <path
       style="fill:#ffffff;fill-rule:evenodd;stroke:none;stroke-width:0.17924131px;stroke-linecap:butt;stroke-linejoin:miter;stroke-opacity:1"
       d="m 119.45014,126.24544 c 0.22142,0.7786 1.40728,1.51331 2.25903,2.37618 0.85176,0.86287 1.81985,1.53327 2.85788,2.78728 1.03804,1.25402 2.14662,2.5474 3.24476,4.83248 1.09815,2.28511 2.23526,6.51466 2.92856,8.98806 0.6933,2.47343 1.27272,4.26211 1.36306,5.76251 0.0903,1.5004 0.0172,1.74291 -0.0453,2.59019 -0.0625,0.84728 -0.1834,1.52344 -0.35953,2.48371 -0.17615,0.96026 -0.83582,2.64533 -1.18762,3.46113 -0.3518,0.8158 -0.53888,1.98218 -0.93902,2.50759 -0.38626,-0.0296 -0.19301,-4.38669 -0.79298,-4.32259 -0.61932,0.0662 -0.52711,2.51499 -0.60969,4.53614 -0.0318,0.70797 -0.13676,2.5815 0.51978,3.53064 1.15601,-0.21628 1.41355,-0.9727 2.36883,-1.80364 0.41522,-0.36117 3.20757,-3.08628 2.77789,-3.57202 -0.47075,-0.53217 -3.07356,2.50123 -3.18338,2.07421 0.75058,-3.01822 2.02373,-5.34175 2.2203,-6.75577 0.19657,-1.41403 0.14677,-1.35887 0.20243,-2.53696 0.0557,-1.17806 0.0972,-2.05384 -0.20587,-4.30305 -0.30304,-2.2492 -0.68544,-3.72401 -1.34957,-5.69306 -0.66413,-1.96904 -1.75706,-5.29056 -2.1128,-6.23582 -0.35574,-0.94526 -0.42402,-1.74467 -0.85975,-2.45832 -0.43572,-0.71366 -0.80998,-0.8684 -1.55098,-1.81022 -0.741,-0.94182 -1.87134,-2.76093 -2.81467,-3.6368 -0.94332,-0.87584 -1.8113,-1.64858 -2.52428,-2.22036 -0.71298,-0.57178 -1.28948,-1.3505 -1.72747,-1.25772 -0.438,0.0928 -0.70102,-0.10245 -0.47959,0.67619 z"
       id="path1485"
       inkscape:connector-curvature="0"
       sodipodi:nodetypes="czzzzzzzzcsccssczzzzzzzzzzzc" />
  </g>
</svg>
