<?xml version="1.0" encoding="UTF-8" standalone="no"?>
<!-- Generator: Adobe Illustrator 16.0.0, SVG Export Plug-In . SVG Version: 6.00 Build 0)  -->

<svg
   xmlns:dc="http://purl.org/dc/elements/1.1/"
   xmlns:cc="http://creativecommons.org/ns#"
   xmlns:rdf="http://www.w3.org/1999/02/22-rdf-syntax-ns#"
   xmlns:svg="http://www.w3.org/2000/svg"
   xmlns="http://www.w3.org/2000/svg"
   xmlns:sodipodi="http://sodipodi.sourceforge.net/DTD/sodipodi-0.dtd"
   xmlns:inkscape="http://www.inkscape.org/namespaces/inkscape"
   version="1.1"
   id="Calque_1"
   x="0px"
   y="0px"
   width="29.999996"
   height="30"
   viewBox="1.811 2.54 29.999997 30.000001"
   enable-background="new 1.811 2.54 29.255 29.46"
   xml:space="preserve"
   sodipodi:docname="favicon.svg"
   inkscape:export-filename="/home/alexis/Website/personal_website/static/img/icon-512.png"
   inkscape:export-xdpi="1638.4"
   inkscape:export-ydpi="1638.4"
   inkscape:version="0.92.4 (5da689c313, 2019-01-14)"><metadata
   id="metadata102"><rdf:RDF><cc:Work
       rdf:about=""><dc:format>image/svg+xml</dc:format><dc:type
         rdf:resource="http://purl.org/dc/dcmitype/StillImage" /><dc:title></dc:title></cc:Work></rdf:RDF></metadata><defs
   id="defs100" /><sodipodi:namedview
   pagecolor="#ffffff"
   bordercolor="#666666"
   borderopacity="1"
   objecttolerance="10"
   gridtolerance="10"
   guidetolerance="10"
   inkscape:pageopacity="0"
   inkscape:pageshadow="2"
   inkscape:window-width="1920"
   inkscape:window-height="1016"
   id="namedview98"
   showgrid="false"
   inkscape:zoom="8.0108624"
   inkscape:cx="14.716056"
   inkscape:cy="14.818169"
   inkscape:window-x="0"
   inkscape:window-y="27"
   inkscape:window-maximized="1"
   inkscape:current-layer="Calque_1"
   fit-margin-top="0"
   fit-margin-left="0"
   fit-margin-right="0"
   fit-margin-bottom="0" />
<g
   id="global_4_"
   transform="matrix(1.0192597,0,0,1.0122139,0.05507036,0.05960313)">
	<g
   id="g26">
		<path
   d="m 8.145,17.242 -1.597,1.593 c -0.674,0.67 -0.529,1.791 -0.017,3.113 0.376,0.977 0.954,2.062 1.548,3.157 1.154,2.125 2.375,4.289 2.329,5.754 C 10.366,31.598 9.963,32 9.963,32 l 1.59,-1.588 C 12.308,29.659 12.032,28.34 11.365,26.807 10.915,25.772 10.286,24.637 9.677,23.514 8.635,21.596 7.648,19.705 7.692,18.384 7.708,17.93 7.845,17.541 8.145,17.242 Z"
   id="path2"
   inkscape:connector-curvature="0"
   style="fill:#206ba4" />
		<path
   d="M 13.418,20.702 C 12.806,19.573 12.176,18.435 11.73,17.398 H 11.728 C 10.227,16.73 8.926,16.466 8.147,17.242 H 8.145 c -0.3,0.299 -0.438,0.688 -0.452,1.142 l 0.031,-0.009 c 1.461,-0.037 3.59,1.174 5.694,2.327 z"
   id="path4"
   inkscape:connector-curvature="0"
   style="fill:#c0c0c0" />
		<path
   d="m 12.709,13.395 c 0.013,-0.458 0.151,-0.849 0.453,-1.149 l -1.598,1.591 c -0.75,0.745 -0.487,2.046 0.167,3.562 0.446,1.037 1.075,2.176 1.688,3.305 1.046,1.926 2.045,3.826 2.004,5.154 -0.013,0.459 -0.151,0.85 -0.452,1.148 l 1.6,-1.587 c 0.679,-0.677 0.524,-1.812 0.002,-3.151 -0.376,-0.964 -0.945,-2.033 -1.531,-3.112 -1.156,-2.131 -2.378,-4.294 -2.333,-5.761 z"
   id="path6"
   inkscape:connector-curvature="0"
   style="fill:#ff6600" />
		<path
   d="m 13.162,12.246 c -0.301,0.3 -0.439,0.69 -0.453,1.149 l 0.017,-0.004 c 1.327,-0.026 3.21,0.974 5.124,2.022 -0.597,-1.097 -1.174,-2.184 -1.553,-3.163 v 0 c -1.33,-0.525 -2.46,-0.679 -3.135,-0.004 z"
   id="path8"
   inkscape:connector-curvature="0"
   style="fill:#f1efe2" />
		<path
   d="m 26.324,12.576 c 1.328,0.527 2.459,0.682 3.14,0.007 l 1.573,-1.56 -0.006,-0.006 c -0.774,0.563 -1.118,0.422 -1.118,0.422 -1.327,0.037 -3.222,-0.971 -5.142,-2.023 v 10e-4 c 0.595,1.095 1.172,2.181 1.553,3.159 z"
   id="path10"
   inkscape:connector-curvature="0"
   style="fill:#c0c0c0" />
		<path
   d="m 15.404,25.862 c -1.467,0.03 -3.613,-1.195 -5.726,-2.352 l -0.001,0.002 c 0.61,1.123 1.239,2.257 1.688,3.292 h 10e-4 c 1.531,0.674 2.848,0.954 3.603,0.2 0.301,-0.3 0.439,-0.69 0.452,-1.147 z"
   id="path12"
   inkscape:connector-curvature="0"
   style="fill:#f1efe2" />
		<path
   d="M 6.532,21.948 C 5.21,21.428 4.086,21.275 3.412,21.947 l -1.601,1.596 c 1.17,-1.166 3.696,0.15 6.268,1.562 H 8.08 C 7.486,24.011 6.908,22.925 6.532,21.948 Z"
   id="path14"
   inkscape:connector-curvature="0"
   style="fill:#f1efe2" />
		<path
   d="m 21.312,4.136 c -0.752,0.748 -0.483,2.057 0.176,3.582 0.445,1.034 1.072,2.166 1.683,3.289 1.045,1.922 2.04,3.818 2.001,5.146 -0.013,0.46 -0.15,0.852 -0.452,1.154 l 1.597,-1.595 c 0.679,-0.674 0.527,-1.804 0.009,-3.135 C 25.946,11.599 25.368,10.514 24.772,9.418 23.626,7.308 22.419,5.165 22.458,3.703 22.47,3.24 22.604,2.845 22.91,2.54 Z"
   id="path16"
   inkscape:connector-curvature="0"
   style="fill:#ff6600" />
		<path
   d="M 23.171,11.006 C 22.563,9.883 21.936,8.751 21.488,7.717 H 21.487 C 19.966,7.052 18.659,6.778 17.908,7.526 l -0.086,0.085 c -0.25,0.286 -0.367,0.646 -0.383,1.061 l 0.022,-0.006 c 1.456,-0.034 3.597,1.183 5.707,2.34 z"
   id="path18"
   inkscape:connector-curvature="0"
   style="fill:#c0c0c0" />
		<path
   d="m 16.297,12.25 c 0.378,0.979 0.956,2.065 1.553,3.163 0,10e-4 0,10e-4 0,0.002 1.161,2.135 2.383,4.304 2.313,5.765 -0.021,0.438 -0.156,0.812 -0.443,1.103 L 21.303,20.711 21.3,20.705 c 0.751,-0.748 0.482,-2.059 -0.176,-3.582 -0.447,-1.034 -1.074,-2.167 -1.685,-3.291 -1.047,-1.929 -2.045,-3.831 -2,-5.159 0.016,-0.416 0.133,-0.775 0.383,-1.061 l -1.514,1.506 c -0.676,0.675 -0.527,1.801 -0.011,3.132 -0.001,-10e-4 -0.001,-10e-4 0,0 z"
   id="path20"
   inkscape:connector-curvature="0"
   style="fill:#206ba4" />
		<path
   d="m 15.041,19.152 v 0 c 0.585,1.08 1.154,2.15 1.531,3.115 h 0.001 c 1.315,0.518 2.442,0.676 3.139,0.021 h 0.001 c 0.002,-0.003 0.005,-0.006 0.008,-0.009 0.287,-0.29 0.424,-0.664 0.443,-1.103 h -0.001 c -1.335,0.07 -3.216,-0.949 -5.122,-2.024 z"
   id="path22"
   inkscape:connector-curvature="0"
   style="fill:#c0c0c0" />
		<path
   d="m 24.72,17.305 c 0.302,-0.301 0.439,-0.691 0.452,-1.153 l -0.021,0.006 c -1.457,0.031 -3.592,-1.183 -5.694,-2.337 l -0.015,0.011 c 0.608,1.124 1.235,2.257 1.684,3.291 l 0.016,-0.01 c 1.519,0.664 2.824,0.939 3.578,0.192 z"
   id="path24"
   inkscape:connector-curvature="0"
   style="fill:#f1efe2" />
	</g>
	<g
   id="g94">
		<path
   stroke-miterlimit="10"
   d="M 11.729,17.398 C 10.228,16.73 8.927,16.466 8.148,17.242"
   id="path28"
   inkscape:connector-curvature="0"
   style="fill:none;stroke:#000000;stroke-width:0.25;stroke-miterlimit:10" />
		<path
   stroke-miterlimit="10"
   d="M 20.162,21.179 C 18.828,21.246 16.947,20.227 15.04,19.155"
   id="path30"
   inkscape:connector-curvature="0"
   style="fill:none;stroke:#000000;stroke-width:0.25;stroke-miterlimit:10" />
		<path
   stroke-miterlimit="10"
   d="m 11.366,26.807 c 0.667,1.533 0.943,2.854 0.188,3.605 L 9.963,32 c 0,0 0.402,-0.402 0.445,-1.141 C 10.454,29.394 9.234,27.23 8.079,25.105 7.485,24.009 6.907,22.923 6.531,21.948 6.018,20.626 5.874,19.505 6.548,18.835 l 1.597,-1.593 c -0.3,0.299 -0.438,0.688 -0.452,1.142 -0.044,1.321 0.943,3.212 1.985,5.13 0.61,1.123 1.239,2.257 1.688,3.293 z"
   id="path32"
   inkscape:connector-curvature="0"
   style="fill:none;stroke:#000000;stroke-width:0.25;stroke-miterlimit:10" />
		<path
   stroke-miterlimit="10"
   d="M 13.417,20.703 C 11.314,19.549 9.185,18.338 7.724,18.375"
   id="path34"
   inkscape:connector-curvature="0"
   style="fill:none;stroke:#000000;stroke-width:0.25;stroke-miterlimit:10" />
		<path
   stroke-miterlimit="10"
   d="m 19.743,22.259 c -0.011,0.011 -0.021,0.021 -0.031,0.03"
   id="path36"
   inkscape:connector-curvature="0"
   style="fill:none;stroke:#000000;stroke-width:0.25;stroke-miterlimit:10" />
		<path
   stroke-miterlimit="10"
   d="m 24.771,9.416 c 1.92,1.053 3.813,2.061 5.142,2.023 0,0 0.344,0.142 1.118,-0.422"
   id="path38"
   inkscape:connector-curvature="0"
   style="fill:none;stroke:#000000;stroke-width:0.25;stroke-miterlimit:10" />
		<path
   stroke-miterlimit="10"
   d="m 17.908,7.527 c 0.751,-0.748 2.059,-0.474 3.579,0.191"
   id="path40"
   inkscape:connector-curvature="0"
   style="fill:none;stroke:#000000;stroke-width:0.25;stroke-miterlimit:10" />
		<path
   stroke-miterlimit="10"
   d="m 26.324,12.576 c 1.328,0.527 2.459,0.682 3.14,0.007"
   id="path42"
   inkscape:connector-curvature="0"
   style="fill:none;stroke:#000000;stroke-width:0.25;stroke-miterlimit:10" />
		<path
   stroke-miterlimit="10"
   d="m 17.463,8.667 c 1.456,-0.034 3.598,1.183 5.707,2.34"
   id="path44"
   inkscape:connector-curvature="0"
   style="fill:none;stroke:#000000;stroke-width:0.25;stroke-miterlimit:10" />
		<path
   stroke-miterlimit="10"
   d="M 16.296,12.249 C 15.78,10.919 15.632,9.793 16.308,9.118"
   id="path46"
   inkscape:connector-curvature="0"
   style="fill:none;stroke:#000000;stroke-width:0.25;stroke-miterlimit:10" />
		<path
   stroke-miterlimit="10"
   d="m 17.85,15.414 c 0,0 0,-10e-4 0,-0.002 -0.597,-1.097 -1.174,-2.184 -1.553,-3.163"
   id="path48"
   inkscape:connector-curvature="0"
   style="fill:none;stroke:#000000;stroke-width:0.25;stroke-miterlimit:10" />
		<path
   stroke-miterlimit="10"
   d="m 19.72,22.28 c 0.287,-0.29 0.423,-0.664 0.443,-1.103 0.067,-1.461 -1.152,-3.63 -2.313,-5.765"
   id="path50"
   inkscape:connector-curvature="0"
   style="fill:none;stroke:#000000;stroke-width:0.25;stroke-miterlimit:10" />
		<path
   stroke-miterlimit="10"
   d="m 19.712,22.289 v 0 c -0.696,0.654 -1.823,0.496 -3.14,-0.021"
   id="path52"
   inkscape:connector-curvature="0"
   style="fill:none;stroke:#000000;stroke-width:0.25;stroke-miterlimit:10" />
		<line
   stroke-miterlimit="10"
   x1="19.712"
   y1="22.289"
   x2="19.719999"
   y2="22.280001"
   id="line54"
   style="fill:none;stroke:#000000;stroke-width:0.25;stroke-miterlimit:10" />
		<polyline
   stroke-miterlimit="10"
   points="21.314,20.695 21.303,20.708     19.72,22.28   "
   id="polyline56"
   style="fill:none;stroke:#000000;stroke-width:0.25;stroke-miterlimit:10" />
		<polyline
   stroke-miterlimit="10"
   points="31.066,10.993 31.037,11.023     29.464,12.583   "
   id="polyline58"
   style="fill:none;stroke:#000000;stroke-width:0.25;stroke-miterlimit:10" />
		<polyline
   stroke-miterlimit="10"
   points="17.908,7.527 17.822,7.612     16.309,9.118   "
   id="polyline60"
   style="fill:none;stroke:#000000;stroke-width:0.25;stroke-miterlimit:10" />
		<path
   stroke-miterlimit="10"
   d="m 21.3,20.705 c 0.751,-0.748 0.482,-2.059 -0.176,-3.582 -0.447,-1.034 -1.074,-2.167 -1.685,-3.291 -1.047,-1.929 -2.045,-3.831 -2,-5.159 0.016,-0.416 0.133,-0.775 0.383,-1.061 0.021,-0.026 0.047,-0.052 0.07,-0.077"
   id="path62"
   inkscape:connector-curvature="0"
   style="fill:none;stroke:#000000;stroke-width:0.25;stroke-miterlimit:10" />
		<line
   stroke-miterlimit="10"
   x1="14.97"
   y1="27.006001"
   x2="16.568001"
   y2="25.419001"
   id="line64"
   style="fill:none;stroke:#000000;stroke-width:0.25;stroke-miterlimit:10" />
		
			<line
   stroke-miterlimit="10"
   x1="13.162"
   y1="12.246"
   x2="11.564"
   y2="13.837"
   id="line66"
   style="fill:none;stroke:#000000;stroke-width:0.25;stroke-miterlimit:10" />
		<line
   stroke-miterlimit="10"
   x1="24.719999"
   y1="17.305"
   x2="26.313999"
   y2="15.71"
   id="line68"
   style="fill:none;stroke:#000000;stroke-width:0.25;stroke-miterlimit:10" />
		<path
   stroke-miterlimit="10"
   d="M 6.532,21.948 C 5.21,21.428 4.086,21.275 3.412,21.947 l -1.601,1.596 c 1.17,-1.166 3.696,0.15 6.268,1.562"
   id="path70"
   inkscape:connector-curvature="0"
   style="fill:none;stroke:#000000;stroke-width:0.25;stroke-miterlimit:10" />
		<path
   stroke-miterlimit="10"
   d="M 15.404,25.862 C 13.937,25.892 11.791,24.667 9.678,23.51"
   id="path72"
   inkscape:connector-curvature="0"
   style="fill:none;stroke:#000000;stroke-width:0.25;stroke-miterlimit:10" />
		<path
   stroke-miterlimit="10"
   d="M 17.854,15.414 C 17.852,15.413 17.85,15.413 17.85,15.412 15.937,14.364 14.054,13.364 12.726,13.39"
   id="path74"
   inkscape:connector-curvature="0"
   style="fill:none;stroke:#000000;stroke-width:0.25;stroke-miterlimit:10" />
		<path
   stroke-miterlimit="10"
   d="m 24.72,17.305 c -0.754,0.747 -2.059,0.475 -3.579,-0.19"
   id="path76"
   inkscape:connector-curvature="0"
   style="fill:none;stroke:#000000;stroke-width:0.25;stroke-miterlimit:10" />
		<path
   stroke-miterlimit="10"
   d="m 21.312,4.136 c -0.752,0.748 -0.483,2.057 0.176,3.582 0.445,1.034 1.072,2.166 1.683,3.289 1.045,1.922 2.04,3.818 2.001,5.146 -0.013,0.46 -0.15,0.852 -0.452,1.154"
   id="path78"
   inkscape:connector-curvature="0"
   style="fill:none;stroke:#000000;stroke-width:0.25;stroke-miterlimit:10" />
		<line
   stroke-miterlimit="10"
   x1="22.909"
   y1="2.54"
   x2="21.312"
   y2="4.1360002"
   id="line80"
   style="fill:none;stroke:#000000;stroke-width:0.25;stroke-miterlimit:10" />
		<path
   stroke-miterlimit="10"
   d="M 22.456,3.702 C 22.469,3.239 22.603,2.844 22.909,2.539"
   id="path82"
   inkscape:connector-curvature="0"
   style="fill:none;stroke:#000000;stroke-width:0.25;stroke-miterlimit:10" />
		<path
   stroke-miterlimit="10"
   d="m 26.314,15.71 c 0.68,-0.674 0.528,-1.804 0.01,-3.135 C 25.943,11.597 25.366,10.512 24.771,9.416 23.625,7.306 22.417,5.163 22.456,3.701"
   id="path84"
   inkscape:connector-curvature="0"
   style="fill:none;stroke:#000000;stroke-width:0.25;stroke-miterlimit:10" />
		<path
   stroke-miterlimit="10"
   d="m 19.455,13.821 c 2.104,1.154 4.236,2.368 5.695,2.337"
   id="path86"
   inkscape:connector-curvature="0"
   style="fill:none;stroke:#000000;stroke-width:0.25;stroke-miterlimit:10" />
		<path
   stroke-miterlimit="10"
   d="m 13.162,12.246 c 0.675,-0.674 1.806,-0.521 3.135,0.003 v 0 c 0,0 0.002,0 0.002,10e-4"
   id="path88"
   inkscape:connector-curvature="0"
   style="fill:none;stroke:#000000;stroke-width:0.25;stroke-miterlimit:10" />
		<path
   stroke-miterlimit="10"
   d="m 16.568,25.419 c 0.68,-0.677 0.525,-1.812 0.003,-3.151 -0.376,-0.964 -0.945,-2.033 -1.531,-3.112 -1.154,-2.128 -2.376,-4.292 -2.331,-5.76 0.013,-0.458 0.151,-0.849 0.453,-1.149"
   id="path90"
   inkscape:connector-curvature="0"
   style="fill:none;stroke:#000000;stroke-width:0.25;stroke-miterlimit:10" />
		<path
   stroke-miterlimit="10"
   d="m 11.368,26.807 c 1.531,0.672 2.848,0.953 3.603,0.199 0.301,-0.3 0.439,-0.689 0.452,-1.148 0.041,-1.328 -0.958,-3.229 -2.004,-5.154 -0.612,-1.129 -1.242,-2.268 -1.688,-3.305 -0.653,-1.516 -0.916,-2.815 -0.167,-3.562"
   id="path92"
   inkscape:connector-curvature="0"
   style="fill:none;stroke:#000000;stroke-width:0.25;stroke-miterlimit:10" />
	</g>
</g>
</svg>