<?xml version="1.0" encoding="utf-8"?>
<!-- Generator: Adobe Illustrator 16.0.0, SVG Export Plug-In . SVG Version: 6.00 Build 0)  -->
<!DOCTYPE svg PUBLIC "-//W3C//DTD SVG 1.1//EN" "http://www.w3.org/Graphics/SVG/1.1/DTD/svg11.dtd">
<svg version="1.1" id="Calque_1" xmlns="http://www.w3.org/2000/svg" xmlns:xlink="http://www.w3.org/1999/xlink" x="0px" y="0px"
	 width="29.255px" height="29.46px" viewBox="1.811 2.54 29.255 29.46" enable-background="new 1.811 2.54 29.255 29.46"
	 xml:space="preserve">
<g id="global_4_">
	<g>
		<path fill="#206BA4" d="M8.145,17.242l-1.597,1.593c-0.674,0.67-0.529,1.791-0.017,3.113c0.376,0.977,0.954,2.062,1.548,3.157
			c1.154,2.125,2.375,4.289,2.329,5.754C10.366,31.598,9.963,32,9.963,32l1.59-1.588c0.755-0.753,0.479-2.072-0.188-3.605
			c-0.45-1.035-1.079-2.17-1.688-3.293c-1.042-1.918-2.029-3.809-1.985-5.13C7.708,17.93,7.845,17.541,8.145,17.242z"/>
		<path fill="#C0C0C0" d="M13.418,20.702c-0.612-1.129-1.242-2.267-1.688-3.304h-0.002c-1.501-0.668-2.802-0.932-3.581-0.156H8.145
			c-0.3,0.299-0.438,0.688-0.452,1.142l0.031-0.009C9.185,18.338,11.314,19.549,13.418,20.702L13.418,20.702z"/>
		<path fill="#FF6600" d="M12.709,13.395c0.013-0.458,0.151-0.849,0.453-1.149l-1.598,1.591c-0.75,0.745-0.487,2.046,0.167,3.562
			c0.446,1.037,1.075,2.176,1.688,3.305c1.046,1.926,2.045,3.826,2.004,5.154c-0.013,0.459-0.151,0.85-0.452,1.148l1.6-1.587
			c0.679-0.677,0.524-1.812,0.002-3.151c-0.376-0.964-0.945-2.033-1.531-3.112C13.886,17.025,12.664,14.862,12.709,13.395z"/>
		<path fill="#F1EFE2" d="M13.162,12.246c-0.301,0.3-0.439,0.69-0.453,1.149l0.017-0.004c1.327-0.026,3.21,0.974,5.124,2.022
			c-0.597-1.097-1.174-2.184-1.553-3.163l0,0C14.967,11.725,13.837,11.571,13.162,12.246z"/>
		<path fill="#C0C0C0" d="M26.324,12.576c1.328,0.527,2.459,0.682,3.14,0.007l1.573-1.56l-0.006-0.006
			c-0.774,0.563-1.118,0.422-1.118,0.422c-1.327,0.037-3.222-0.971-5.142-2.023v0.001C25.366,10.512,25.943,11.598,26.324,12.576z"
			/>
		<path fill="#F1EFE2" d="M15.404,25.862c-1.467,0.03-3.613-1.195-5.726-2.352l-0.001,0.002c0.61,1.123,1.239,2.257,1.688,3.292
			h0.001c1.531,0.674,2.848,0.954,3.603,0.2c0.301-0.3,0.439-0.69,0.452-1.147L15.404,25.862z"/>
		<path fill="#F1EFE2" d="M6.532,21.948c-1.322-0.52-2.446-0.673-3.12-0.001l-1.601,1.596c1.17-1.166,3.696,0.15,6.268,1.562H8.08
			C7.486,24.011,6.908,22.925,6.532,21.948z"/>
		<path fill="#FF6600" d="M21.312,4.136c-0.752,0.748-0.483,2.057,0.176,3.582c0.445,1.034,1.072,2.166,1.683,3.289
			c1.045,1.922,2.04,3.818,2.001,5.146c-0.013,0.46-0.15,0.852-0.452,1.154l1.597-1.595c0.679-0.674,0.527-1.804,0.009-3.135
			c-0.38-0.978-0.958-2.063-1.554-3.159c-1.146-2.11-2.353-4.253-2.314-5.715C22.47,3.24,22.604,2.845,22.91,2.54L21.312,4.136z"/>
		<path fill="#C0C0C0" d="M23.171,11.006c-0.608-1.123-1.235-2.255-1.683-3.289h-0.001c-1.521-0.665-2.828-0.939-3.579-0.191
			l-0.086,0.085c-0.25,0.286-0.367,0.646-0.383,1.061l0.022-0.006c1.456-0.034,3.597,1.183,5.707,2.34H23.171z"/>
		<path fill="#206BA4" d="M16.297,12.25c0.378,0.979,0.956,2.065,1.553,3.163c0,0.001,0,0.001,0,0.002
			c1.161,2.135,2.383,4.304,2.313,5.765c-0.021,0.438-0.156,0.812-0.443,1.103l1.583-1.572L21.3,20.705
			c0.751-0.748,0.482-2.059-0.176-3.582c-0.447-1.034-1.074-2.167-1.685-3.291c-1.047-1.929-2.045-3.831-2-5.159
			c0.016-0.416,0.133-0.775,0.383-1.061l-1.514,1.506C15.632,9.793,15.781,10.919,16.297,12.25
			C16.296,12.249,16.296,12.249,16.297,12.25z"/>
		<path fill="#C0C0C0" d="M15.041,19.152L15.041,19.152c0.585,1.08,1.154,2.15,1.531,3.115h0.001
			c1.315,0.518,2.442,0.676,3.139,0.021h0.001c0.002-0.003,0.005-0.006,0.008-0.009c0.287-0.29,0.424-0.664,0.443-1.103h-0.001
			C18.828,21.246,16.947,20.227,15.041,19.152z"/>
		<path fill="#F1EFE2" d="M24.72,17.305c0.302-0.301,0.439-0.691,0.452-1.153l-0.021,0.006c-1.457,0.031-3.592-1.183-5.694-2.337
			l-0.015,0.011c0.608,1.124,1.235,2.257,1.684,3.291l0.016-0.01C22.661,17.777,23.966,18.052,24.72,17.305z"/>
	</g>
	<g>
		<path fill="none" stroke="#000000" stroke-width="0.25" stroke-miterlimit="10" d="M11.729,17.398
			c-1.501-0.668-2.802-0.932-3.581-0.156"/>
		<path fill="none" stroke="#000000" stroke-width="0.25" stroke-miterlimit="10" d="M20.162,21.179
			c-1.334,0.067-3.215-0.952-5.122-2.024"/>
		<path fill="none" stroke="#000000" stroke-width="0.25" stroke-miterlimit="10" d="M11.366,26.807
			c0.667,1.533,0.943,2.854,0.188,3.605L9.963,32c0,0,0.402-0.402,0.445-1.141c0.046-1.465-1.174-3.629-2.329-5.754
			c-0.594-1.096-1.172-2.182-1.548-3.157c-0.513-1.322-0.657-2.443,0.017-3.113l1.597-1.593c-0.3,0.299-0.438,0.688-0.452,1.142
			c-0.044,1.321,0.943,3.212,1.985,5.13C10.288,24.637,10.917,25.771,11.366,26.807z"/>
		<path fill="none" stroke="#000000" stroke-width="0.25" stroke-miterlimit="10" d="M13.417,20.703
			c-2.103-1.154-4.232-2.365-5.693-2.328"/>
		<path fill="none" stroke="#000000" stroke-width="0.25" stroke-miterlimit="10" d="M19.743,22.259
			c-0.011,0.011-0.021,0.021-0.031,0.03"/>
		<path fill="none" stroke="#000000" stroke-width="0.25" stroke-miterlimit="10" d="M24.771,9.416
			c1.92,1.053,3.813,2.061,5.142,2.023c0,0,0.344,0.142,1.118-0.422"/>
		<path fill="none" stroke="#000000" stroke-width="0.25" stroke-miterlimit="10" d="M17.908,7.527
			c0.751-0.748,2.059-0.474,3.579,0.191"/>
		<path fill="none" stroke="#000000" stroke-width="0.25" stroke-miterlimit="10" d="M26.324,12.576
			c1.328,0.527,2.459,0.682,3.14,0.007"/>
		<path fill="none" stroke="#000000" stroke-width="0.25" stroke-miterlimit="10" d="M17.463,8.667
			c1.456-0.034,3.598,1.183,5.707,2.34"/>
		<path fill="none" stroke="#000000" stroke-width="0.25" stroke-miterlimit="10" d="M16.296,12.249
			c-0.516-1.33-0.664-2.456,0.012-3.131"/>
		<path fill="none" stroke="#000000" stroke-width="0.25" stroke-miterlimit="10" d="M17.85,15.414c0,0,0-0.001,0-0.002
			c-0.597-1.097-1.174-2.184-1.553-3.163"/>
		<path fill="none" stroke="#000000" stroke-width="0.25" stroke-miterlimit="10" d="M19.72,22.28
			c0.287-0.29,0.423-0.664,0.443-1.103c0.067-1.461-1.152-3.63-2.313-5.765"/>
		<path fill="none" stroke="#000000" stroke-width="0.25" stroke-miterlimit="10" d="M19.712,22.289L19.712,22.289
			c-0.696,0.654-1.823,0.496-3.14-0.021"/>
		<line fill="none" stroke="#000000" stroke-width="0.25" stroke-miterlimit="10" x1="19.712" y1="22.289" x2="19.72" y2="22.28"/>
		<polyline fill="none" stroke="#000000" stroke-width="0.25" stroke-miterlimit="10" points="21.314,20.695 21.303,20.708 
			19.72,22.28 		"/>
		<polyline fill="none" stroke="#000000" stroke-width="0.25" stroke-miterlimit="10" points="31.066,10.993 31.037,11.023 
			29.464,12.583 		"/>
		<polyline fill="none" stroke="#000000" stroke-width="0.25" stroke-miterlimit="10" points="17.908,7.527 17.822,7.612 
			16.309,9.118 		"/>
		<path fill="none" stroke="#000000" stroke-width="0.25" stroke-miterlimit="10" d="M21.3,20.705
			c0.751-0.748,0.482-2.059-0.176-3.582c-0.447-1.034-1.074-2.167-1.685-3.291c-1.047-1.929-2.045-3.831-2-5.159
			c0.016-0.416,0.133-0.775,0.383-1.061c0.021-0.026,0.047-0.052,0.07-0.077"/>
		<line fill="none" stroke="#000000" stroke-width="0.25" stroke-miterlimit="10" x1="14.97" y1="27.006" x2="16.568" y2="25.419"/>
		
			<line fill="none" stroke="#000000" stroke-width="0.25" stroke-miterlimit="10" x1="13.162" y1="12.246" x2="11.564" y2="13.837"/>
		<line fill="none" stroke="#000000" stroke-width="0.25" stroke-miterlimit="10" x1="24.72" y1="17.305" x2="26.314" y2="15.71"/>
		<path fill="none" stroke="#000000" stroke-width="0.25" stroke-miterlimit="10" d="M6.532,21.948
			c-1.322-0.52-2.446-0.673-3.12-0.001l-1.601,1.596c1.17-1.166,3.696,0.15,6.268,1.562"/>
		<path fill="none" stroke="#000000" stroke-width="0.25" stroke-miterlimit="10" d="M15.404,25.862
			c-1.467,0.03-3.613-1.195-5.726-2.352"/>
		<path fill="none" stroke="#000000" stroke-width="0.25" stroke-miterlimit="10" d="M17.854,15.414
			c-0.002-0.001-0.004-0.001-0.004-0.002c-1.913-1.048-3.796-2.048-5.124-2.022"/>
		<path fill="none" stroke="#000000" stroke-width="0.25" stroke-miterlimit="10" d="M24.72,17.305
			c-0.754,0.747-2.059,0.475-3.579-0.19"/>
		<path fill="none" stroke="#000000" stroke-width="0.25" stroke-miterlimit="10" d="M21.312,4.136
			c-0.752,0.748-0.483,2.057,0.176,3.582c0.445,1.034,1.072,2.166,1.683,3.289c1.045,1.922,2.04,3.818,2.001,5.146
			c-0.013,0.46-0.15,0.852-0.452,1.154"/>
		<line fill="none" stroke="#000000" stroke-width="0.25" stroke-miterlimit="10" x1="22.909" y1="2.54" x2="21.312" y2="4.136"/>
		<path fill="none" stroke="#000000" stroke-width="0.25" stroke-miterlimit="10" d="M22.456,3.702
			c0.013-0.463,0.147-0.858,0.453-1.163"/>
		<path fill="none" stroke="#000000" stroke-width="0.25" stroke-miterlimit="10" d="M26.314,15.71
			c0.68-0.674,0.528-1.804,0.01-3.135c-0.381-0.978-0.958-2.063-1.553-3.159c-1.146-2.11-2.354-4.253-2.315-5.715"/>
		<path fill="none" stroke="#000000" stroke-width="0.25" stroke-miterlimit="10" d="M19.455,13.821
			c2.104,1.154,4.236,2.368,5.695,2.337"/>
		<path fill="none" stroke="#000000" stroke-width="0.25" stroke-miterlimit="10" d="M13.162,12.246
			c0.675-0.674,1.806-0.521,3.135,0.003l0,0c0,0,0.002,0,0.002,0.001"/>
		<path fill="none" stroke="#000000" stroke-width="0.25" stroke-miterlimit="10" d="M16.568,25.419
			c0.68-0.677,0.525-1.812,0.003-3.151c-0.376-0.964-0.945-2.033-1.531-3.112c-1.154-2.128-2.376-4.292-2.331-5.76
			c0.013-0.458,0.151-0.849,0.453-1.149"/>
		<path fill="none" stroke="#000000" stroke-width="0.25" stroke-miterlimit="10" d="M11.368,26.807
			c1.531,0.672,2.848,0.953,3.603,0.199c0.301-0.3,0.439-0.689,0.452-1.148c0.041-1.328-0.958-3.229-2.004-5.154
			c-0.612-1.129-1.242-2.268-1.688-3.305c-0.653-1.516-0.916-2.815-0.167-3.562"/>
	</g>
</g>
</svg>
